<svg fill="none" xmlns="http://www.w3.org/2000/svg" viewBox="0 0 139 186"><g opacity=".1" fill-rule="evenodd" clip-rule="evenodd"><path d="M135.4 141.54c4.07 2.35 4.09 6.15 0 8.5l-58.37 33.94c-4 2.34-10.6 2.35-14.66 0l-58.8-33.96c-4.05-2.34-4.07-6.14 0-8.5L62 107.59c4-2.34 10.6-2.34 14.66 0l58.76 33.96Z" fill="url(#paint0_linear)"/><path d="M135.4 141.54c4.07 2.35 4.09 6.15 0 8.5l-58.37 33.94c-4 2.34-10.6 2.35-14.66 0l-58.8-33.96c-4.05-2.34-4.07-6.14 0-8.5L62 107.59c4-2.34 10.6-2.34 14.66 0l58.76 33.96Z" fill="url(#paint1_linear)"/></g><path fill-rule="evenodd" clip-rule="evenodd" d="M135.52 113.99c4.07 2.34 4.08 6.15.04 8.5l-58.52 34c-4.05 2.36-10.62 2.36-14.69 0l-58.91-34c-4.06-2.35-4.09-6.16 0-8.5l58.48-34.02c4.05-2.35 10.63-2.35 14.69 0l58.91 34.02Z" fill="url(#paint2_linear)"/><path fill-rule="evenodd" clip-rule="evenodd" d="M138.58 118.24c0 1.54-1 3.07-3.02 4.25l-58.52 34c-4.05 2.36-10.62 2.36-14.69 0l-58.91-34c-2.03-1.17-3.06-2.71-3.06-4.25v4c0 1.54 1.03 3.08 3.06 4.25l58.93 34c4.08 2.35 10.65 2.34 14.7 0l58.52-34.01c2.02-1.18 3.03-2.72 3.02-4.26v-4l-.03.02Z" fill="url(#paint3_linear)"/><path fill-rule="evenodd" clip-rule="evenodd" d="M138.58 118.24c0 1.54-1 3.07-3.02 4.25l-58.52 34c-4.05 2.36-10.62 2.36-14.69 0l-58.91-34c-2.03-1.17-3.06-2.71-3.06-4.25v4c0 1.54 1.03 3.08 3.06 4.25l58.93 34c4.08 2.35 10.65 2.34 14.7 0l58.52-34.01c2.02-1.18 3.03-2.72 3.02-4.26v-4l-.03.02Z" fill="url(#paint4_linear)"/><path fill-rule="evenodd" clip-rule="evenodd" d="M69.7 147.84c-.73.03-1.46-.1-2.14-.37L16.9 118.22l50.27-29.2c.68-.27 1.4-.4 2.12-.37a5.3 5.3 0 0 1 2.16.37l50.66 29.25-50.28 29.2c-.68.28-1.4.4-2.12.37Z" fill="url(#paint5_linear)"/><path fill-rule="evenodd" clip-rule="evenodd" d="M69.7 147.84c-.73.03-1.46-.1-2.14-.37L16.9 118.22l50.27-29.2c.68-.27 1.4-.4 2.12-.37a5.3 5.3 0 0 1 2.16.37l50.66 29.25-50.28 29.2c-.68.28-1.4.4-2.12.37Z" fill="url(#paint6_linear)"/><path fill-rule="evenodd" clip-rule="evenodd" d="M16.88 27.92v90.3l50.66 29.25c.69.27 1.42.4 2.16.37.72.03 1.45-.1 2.12-.36l50.26-29.2V27.9l-105.2.01Z" fill="url(#paint7_linear)"/><path fill-rule="evenodd" clip-rule="evenodd" d="M62.12 136.2a15.46 15.46 0 0 0 7.59 1.82c2.64.05 5.25-.57 7.59-1.82l58.43-33.94c2.11-1.23 3.27-2.88 3.27-4.68 0-1.8-1.18-3.47-3.32-4.7l-58.8-33.96c-4.21-2.4-11.02-2.4-15.2 0L3.29 92.88C1.15 94.11 0 95.77 0 97.56c0 1.8 1.18 3.46 3.31 4.7l58.8 33.94Zm.09-76.38a14.4 14.4 0 0 1 7.07-1.7c2.46-.05 4.9.53 7.07 1.69l58.8 33.95c1.8 1.04 2.8 2.42 2.8 3.8 0 1.4-.99 2.76-2.76 3.8L76.77 135.3c-3.88 2.23-10.23 2.23-14.13 0L3.83 101.36c-1.8-1.04-2.78-2.43-2.79-3.82 0-1.38.98-2.75 2.75-3.78l58.42-33.94Z" fill="#fff"/><path fill-rule="evenodd" clip-rule="evenodd" d="M62.12 115.52a15.54 15.54 0 0 0 7.59 1.82c2.64.05 5.26-.58 7.59-1.83l58.43-33.93c2.11-1.24 3.27-2.9 3.27-4.7 0-1.79-1.18-3.46-3.32-4.7l-58.8-33.95c-4.21-2.4-11.02-2.4-15.2 0L3.29 72.18C1.15 73.4 0 75.07 0 76.86c0 1.8 1.18 3.48 3.31 4.7l58.8 33.96Zm.09-76.4a14.4 14.4 0 0 1 7.07-1.69c2.46-.04 4.9.54 7.07 1.7l58.8 33.94c1.8 1.04 2.8 2.44 2.8 3.82s-.98 2.74-2.76 3.78l-58.41 33.95c-3.89 2.25-10.23 2.26-14.14 0L3.83 80.67c-1.8-1.04-2.78-2.41-2.79-3.8 0-1.4.98-2.76 2.75-3.8l58.42-33.94Z" fill="#fff"/><path fill-rule="evenodd" clip-rule="evenodd" d="M33.97 22.71c0-.23-.07-.46-.1-.7 0-.1-.04-.21-.06-.31-.02-.1 0-.1 0-.14 0-.04 0-.22-.04-.32s-.05-.44-.06-.66c-.02-.21 0-.23 0-.34 0-.11 0-.44-.04-.66v-1.24c0-5.4 1.92-9.2 5-11l7.04-4.09c-3.08 1.79-4.98 5.6-5 11V16.48c0 .11 0 .43.07.66v.32l.07.45c0 .23.06.46.1.7l.08.46.13.67.11.54.1.45.16.58.1.45.11.35c.14.5.3 1 .45 1.48v.11c.15.48.33.95.51 1.43 0 .12.1.23.14.35.15.41.32.8.49 1.21l.08.18c.19.45.39.88.6 1.32l.16.34.52 1.03.17.31c.23.44.47.86.71 1.28l.15.24.66 1.08.2.32.86 1.29.14.2.95 1.29.13.17c.4.52.8 1.04 1.26 1.53l.17.2.8.9.88.9.57.54.15.16c.26.23.5.46.8.68l.2.18.57.47.29.23.5.4.31.23.5.36.3.21.56.37.26.18.8.5c.37.2.73.4 1.1.58l.3.15.8.37.3.12.8.3.18.06a15.08 15.08 0 0 0 1.45.42l.26.06c.25.06.52.1.8.15.24 0 .46.06.7.09h1.8c.26 0 .53-.06.8-.1h.24a7.8 7.8 0 0 0 1.65-.46l.23-.1.63-.3.2-.12-7.05 4.1-.1.05-.1.06c-.2.11-.41.21-.63.3l-.12.07h-.1a7.91 7.91 0 0 1-1.76.46h-.14c-.24 0-.5.07-.8.1h-1.8l-.7-.09-.8-.14-.25-.07c-.16 0-.32-.07-.48-.12h-.05c-.3-.08-.62-.17-.93-.28l-.18-.07-.8-.29-.1-.04-.2-.08-.8-.37-.3-.16-1.1-.58-.79-.5-.16-.12-.55-.36-.3-.21-.51-.37-.31-.23-.5-.4-.3-.22-.55-.48-.18-.19c-.25-.21-.5-.45-.76-.68l-.17-.12-.5-.47-.07-.08a23.47 23.47 0 0 1-1.68-1.8l-.07-.08-.1-.11c-.43-.5-.85-1-1.26-1.54l-.19-.23c-.32-.42-.64-.85-.95-1.3l-.1-.12a44.8 44.8 0 0 1-.9-1.35l-.08-.11-.11-.2a30.36 30.36 0 0 1-.77-1.25v-.07c-.25-.42-.48-.84-.7-1.28l-.07-.1-.1-.2-.53-1.04-.1-.22s0-.08-.07-.12l-.6-1.32-.06-.15-.49-1.2-.08-.19c0-.05 0-.11-.05-.16-.19-.48-.35-.95-.51-1.43v-.09c-.16-.48-.32-.98-.45-1.47 0-.06 0-.13-.06-.2l-.05-.16c-.04-.14-.08-.3-.1-.44l-.16-.59-.1-.45c0-.1-.05-.2-.08-.31v-.22l-.12-.68c-.04-.22-.2-.39-.22-.54Z" fill="url(#paint8_linear)"/><path fill-rule="evenodd" clip-rule="evenodd" d="M33.97 22.71c0-.23-.07-.46-.1-.7 0-.1-.04-.21-.06-.31-.02-.1 0-.1 0-.14 0-.04 0-.22-.04-.32s-.05-.44-.06-.66c-.02-.21 0-.23 0-.34 0-.11 0-.44-.04-.66v-1.24c0-5.4 1.92-9.2 5-11l7.04-4.09c-3.08 1.79-4.98 5.6-5 11V16.48c0 .11 0 .43.07.66v.32l.07.45c0 .23.06.46.1.7l.08.46.13.67.11.54.1.45.16.58.1.45.11.35c.14.5.3 1 .45 1.48v.11c.15.48.33.95.51 1.43 0 .12.1.23.14.35.15.41.32.8.49 1.21l.08.18c.19.45.39.88.6 1.32l.16.34.52 1.03.17.31c.23.44.47.86.71 1.28l.15.24.66 1.08.2.32.86 1.29.14.2.95 1.29.13.17c.4.52.8 1.04 1.26 1.53l.17.2.8.9.88.9.57.54.15.16c.26.23.5.46.8.68l.2.18.57.47.29.23.5.4.31.23.5.36.3.21.56.37.26.18.8.5c.37.2.73.4 1.1.58l.3.15.8.37.3.12.8.3.18.06a15.08 15.08 0 0 0 1.45.42l.26.06c.25.06.52.1.8.15.24 0 .46.06.7.09h1.8c.26 0 .53-.06.8-.1h.24a7.8 7.8 0 0 0 1.65-.46l.23-.1.63-.3.2-.12-7.05 4.1-.1.05-.1.06c-.2.11-.41.21-.63.3l-.12.07h-.1a7.91 7.91 0 0 1-1.76.46h-.14c-.24 0-.5.07-.8.1h-1.8l-.7-.09-.8-.14-.25-.07c-.16 0-.32-.07-.48-.12h-.05c-.3-.08-.62-.17-.93-.28l-.18-.07-.8-.29-.1-.04-.2-.08-.8-.37-.3-.16-1.1-.58-.79-.5-.16-.12-.55-.36-.3-.21-.51-.37-.31-.23-.5-.4-.3-.22-.55-.48-.18-.19c-.25-.21-.5-.45-.76-.68l-.17-.12-.5-.47-.07-.08a23.47 23.47 0 0 1-1.68-1.8l-.07-.08-.1-.11c-.43-.5-.85-1-1.26-1.54l-.19-.23c-.32-.42-.64-.85-.95-1.3l-.1-.12a44.8 44.8 0 0 1-.9-1.35l-.08-.11-.11-.2a30.36 30.36 0 0 1-.77-1.25v-.07c-.25-.42-.48-.84-.7-1.28l-.07-.1-.1-.2-.53-1.04-.1-.22s0-.08-.07-.12l-.6-1.32-.06-.15-.49-1.2-.08-.19c0-.05 0-.11-.05-.16-.19-.48-.35-.95-.51-1.43v-.09c-.16-.48-.32-.98-.45-1.47 0-.06 0-.13-.06-.2l-.05-.16c-.04-.14-.08-.3-.1-.44l-.16-.59-.1-.45c0-.1-.05-.2-.08-.31v-.22l-.12-.68c-.04-.22-.2-.39-.22-.54Z" fill="url(#paint9_linear)"/><path fill-rule="evenodd" clip-rule="evenodd" d="M69.57 35.86v-1c0-.22 0-.44-.06-.67v-.3c0-.11 0-.32-.07-.47-.06-.15-.06-.46-.1-.69l-.08-.47c-.02-.16-.09-.44-.14-.67l-.1-.53-.11-.46-.15-.58-.2-.43-.1-.35c-.14-.5-.29-.99-.46-1.48v-.12a42.8 42.8 0 0 0-.64-1.78c-.16-.4-.32-.8-.5-1.2l-.07-.18-.6-1.32-.18-.35c-.16-.34-.34-.68-.52-1.03l-.16-.3a32.3 32.3 0 0 0-.7-1.28l-.15-.24-.67-1.09-.2-.3c-.28-.45-.56-.88-.87-1.3l-.13-.2c-.3-.44-.63-.87-.95-1.3l-.13-.16c-.41-.53-.8-1.03-1.27-1.54l-.16-.2c-.27-.3-.53-.6-.8-.88l-.05-.05a46.07 46.07 0 0 0-1.45-1.45l-.15-.15c-.25-.23-.5-.46-.8-.68l-.2-.18-.57-.48-.29-.23-.5-.39-.3-.23-.5-.35-.31-.21-.55-.37-.27-.22-.8-.5-1.08-.58-.3-.14-.8-.37-.29-.12-.75-.3-.2-.06c-.3-.1-.6-.2-.91-.28l-.54-.14-.25-.06a6.92 6.92 0 0 0-.8-.14c-.23 0-.46-.06-.7-.08H44.15c-.26 0-.52.05-.8.09h-.23a7.03 7.03 0 0 0-1.65.46l-.22.1c-.22.09-.43.19-.63.3l-.21.11 3.53-2.04.05-.03.11-.05c.2-.12.42-.22.64-.3l.1-.06h.11c.26-.1.53-.2.8-.28h.04c.28-.08.57-.14.86-.19H46.88c.25 0 .5-.07.8-.09h1.8c.23 0 .46.05.7.08l.8.15.26.05.48.12h.04l.93.28.18.08.7.23h.1l.2.09.8.36.3.16a24.03 24.03 0 0 1 1.89 1.08l.26.17.55.37.3.2.51.38.31.23.5.39.29.23.56.47.21.19.76.68.15.15c.06.05.34.31.5.48l.07.07c.3.29.6.6.87.9v.04c.28.3.55.59.8.9l.07.08.1.11c.43.5.85 1 1.26 1.54v.04l.1.12.95 1.3.1.13v.06c.3.42.58.85.86 1.3l.09.12.11.19a30.36 30.36 0 0 1 .77 1.25v.08c.25.41.48.84.71 1.27l.06.1.1.21.53 1.04c0 .06.07.14.1.2.03.08 0 .1.07.14l.6 1.32.06.14.49 1.2.08.19.05.17c.19.47.36.94.52 1.42v.09a34.67 34.67 0 0 1 .5 1.66l.05.17c0 .15.08.3.1.45l.16.58.1.46.08.31c.02.1 0 .14 0 .22l.12.67.08.47c.03.16.08.46.1.69.04.23.05.21.06.33.02.1 0 .08 0 .13s0 .2.04.32c.04.11.05.44.07.66v.33c0 .11 0 .45.04.67.04.21 0 .2 0 .3v.94c.07 2.6-.51 5.2-1.7 7.52a8.85 8.85 0 0 1-3.3 3.46l-3.52 2.05c3.07-1.78 4.98-5.6 5-10.99v-.93c.31 0 .31-.07.31-.2Z" fill="#A3A3A3"/><path fill-rule="evenodd" clip-rule="evenodd" d="M52.55 7.52c-9.46-5.46-17.16-1.08-17.2 9.8-.03 10.87 7.62 24.11 17.08 29.58 9.46 5.47 17.14 1.08 17.19-9.8.05-10.89-7.61-24.12-17.07-29.58Z" fill="url(#paint10_linear)"/><path fill-rule="evenodd" clip-rule="evenodd" d="m69.46 37.7-.05-.71v-.38c0-.24-.02-.48-.07-.72v-.35c0-.12-.05-.34-.07-.5l-.11-.8c-.04-.3-.06-.34-.1-.51l-.14-.74c0-.2-.08-.39-.12-.59l-.12-.48-.16-.65-.12-.49-.12-.4c-.15-.53-.3-1.07-.48-1.6a.7.7 0 0 1 0-.11l-.56-1.6-.16-.4a37.58 37.58 0 0 0-1.28-2.94 8.37 8.37 0 0 0-.19-.39l-.56-1.13-.28-.28c-.24-.47-.5-.94-.8-1.4l-.15-.26-.73-1.19-.22-.34c-.3-.48-.62-.96-.94-1.42l-.16-.2c-.34-.49-.68-.96-1.04-1.42l-.16-.22-.34-.42-.43-.54-.36-.42-.42-.49c-.28-.33-.58-.66-.88-.98l-.04-.05-.96-.98-.63-.6-.16-.16c-.28-.26-.56-.5-.8-.76l-.23-.19-.62-.52-.32-.25-.55-.44-.34-.24-.58-.44-.33-.24-.6-.36-.29-.2a27.49 27.49 0 0 0-1.77-1.03l-.22-.1a7.37 7.37 0 0 0-.8-.38l-.1-.05-.8-.34-.8-.32-.2-.07a10.4 10.4 0 0 0-1.01-.31l-.58-.15-.28-.07-.85-.16-.8-.1h-1.74c-.24 0-.48 0-.7.07h-.15l-.47.08a8.85 8.85 0 0 0-1.83.53l-.24.1-.7.34-.22.12 7.05-4.1.1-.05.12-.07c.23-.12.46-.23.7-.33l.13-.07.1-.04.8-.3h.05c.32-.09.65-.17.98-.22h.11l.36-.06h.15L48.7 0h1.85c.25 0 .5.05.8.09.28 0 .56.1.84.15l.27.06.53.14h.06c.33.09.67.2 1 .31l.22.07c.27.1.55.2.8.32l.1.04.68.3.13.12.8.38.22.1c.29.16.58.31.86.48.3.17.6.36.9.55l.3.18.6.41.32.23.56.4.34.25.55.44.31.25.63.52.22.2.8.74.17.16.54.53.08.08.95.98.06.06c.3.31.6.64.88.97l.08.1c.12.12.22.26.33.4l.36.41.44.54.33.42.07.08.1.14 1.04 1.4c0 .06.07.1.1.15l.05.07c.32.46.64.93.95 1.41l.1.14c.03.07.07.14.12.2l.73 1.2c0 .06.07.13.1.2v.06l.8 1.4.07.1.12.24c.2.37.39.75.57 1.13l.12.24a29.5 29.5 0 0 1 .8 1.74l.54 1.32.08.2.07.18c.19.52.38 1.04.56 1.6v.09a50.61 50.61 0 0 1 .55 1.8l.05.2.13.48.16.65c.04.21.08.32.1.48l.09.35.05.25.14.73c0 .17.06.34.09.5a16.76 16.76 0 0 1 .17 1.13c.05.12 0 .1 0 .14v.35c0 .24.05.48.07.72v.38l.05.72v1.36c.14 2.85-.43 5.7-1.67 8.27a9.72 9.72 0 0 1-3.62 3.8l-7.04 4.1c3.37-1.96 5.46-6.12 5.47-12v-1.03a1.72 1.72 0 0 1-.03-.35Z" fill="url(#paint11_linear)"/><path fill-rule="evenodd" clip-rule="evenodd" d="m69.46 37.7-.05-.71v-.38c0-.24-.02-.48-.07-.72v-.35c0-.12-.05-.34-.07-.5l-.11-.8c-.04-.3-.06-.34-.1-.51l-.14-.74c0-.2-.08-.39-.12-.59l-.12-.48-.16-.65-.12-.49-.12-.4c-.15-.53-.3-1.07-.48-1.6a.7.7 0 0 1 0-.11l-.56-1.6-.16-.4a37.58 37.58 0 0 0-1.28-2.94 8.37 8.37 0 0 0-.19-.39l-.56-1.13-.28-.28c-.24-.47-.5-.94-.8-1.4l-.15-.26-.73-1.19-.22-.34c-.3-.48-.62-.96-.94-1.42l-.16-.2c-.34-.49-.68-.96-1.04-1.42l-.16-.22-.34-.42-.43-.54-.36-.42-.42-.49c-.28-.33-.58-.66-.88-.98l-.04-.05-.96-.98-.63-.6-.16-.16c-.28-.26-.56-.5-.8-.76l-.23-.19-.62-.52-.32-.25-.55-.44-.34-.24-.58-.44-.33-.24-.6-.36-.29-.2a27.49 27.49 0 0 0-1.77-1.03l-.22-.1a7.37 7.37 0 0 0-.8-.38l-.1-.05-.8-.34-.8-.32-.2-.07a10.4 10.4 0 0 0-1.01-.31l-.58-.15-.28-.07-.85-.16-.8-.1h-1.74c-.24 0-.48 0-.7.07h-.15l-.47.08a8.85 8.85 0 0 0-1.83.53l-.24.1-.7.34-.22.12 7.05-4.1.1-.05.12-.07c.23-.12.46-.23.7-.33l.13-.07.1-.04.8-.3h.05c.32-.09.65-.17.98-.22h.11l.36-.06h.15L48.7 0h1.85c.25 0 .5.05.8.09.28 0 .56.1.84.15l.27.06.53.14h.06c.33.09.67.2 1 .31l.22.07c.27.1.55.2.8.32l.1.04.68.3.13.12.8.38.22.1c.29.16.58.31.86.48.3.17.6.36.9.55l.3.18.6.41.32.23.56.4.34.25.55.44.31.25.63.52.22.2.8.74.17.16.54.53.08.08.95.98.06.06c.3.31.6.64.88.97l.08.1c.12.12.22.26.33.4l.36.41.44.54.33.42.07.08.1.14 1.04 1.4c0 .06.07.1.1.15l.05.07c.32.46.64.93.95 1.41l.1.14c.03.07.07.14.12.2l.73 1.2c0 .06.07.13.1.2v.06l.8 1.4.07.1.12.24c.2.37.39.75.57 1.13l.12.24a29.5 29.5 0 0 1 .8 1.74l.54 1.32.08.2.07.18c.19.52.38 1.04.56 1.6v.09a50.61 50.61 0 0 1 .55 1.8l.05.2.13.48.16.65c.04.21.08.32.1.48l.09.35.05.25.14.73c0 .17.06.34.09.5a16.76 16.76 0 0 1 .17 1.13c.05.12 0 .1 0 .14v.35c0 .24.05.48.07.72v.38l.05.72v1.36c.14 2.85-.43 5.7-1.67 8.27a9.72 9.72 0 0 1-3.62 3.8l-7.04 4.1c3.37-1.96 5.46-6.12 5.47-12v-1.03a1.72 1.72 0 0 1-.03-.35Z" fill="url(#paint12_linear)"/><path fill-rule="evenodd" clip-rule="evenodd" d="M50.67 49.8c10.36 5.98 18.82 1.17 18.82-10.74.03-11.87-8.34-26.42-18.7-32.4C40.42.68 32.04 5.48 31.99 17.4c-.06 11.92 8.31 26.42 18.68 32.4Zm17.19-11.68c-.03 10.88-7.72 15.26-17.2 9.8-9.46-5.47-17.11-18.7-17.07-29.58.04-10.88 7.72-15.28 17.19-9.8 9.47 5.46 17.11 18.7 17.08 29.58Z" fill="url(#paint13_linear)"/><path fill-rule="evenodd" clip-rule="evenodd" d="m94.88 80.43-.08-.11a.65.65 0 0 0-.05-.1c0-.05 0-.1-.06-.13v-.11l-.05-.16V78.7l.11-.39a4.35 4.35 0 0 1 .37-.79l.23-.38a5.4 5.4 0 0 1 .62-.8l.09-.1a6.72 6.72 0 0 1 1.22-1.05l.09-.07c.2-.13.41-.26.62-.37l.12-.07c.2-.1.4-.18.6-.26h.1a4 4 0 0 1 .73-.2 2.26 2.26 0 0 1 2.21.53L74.98 43.59a2.23 2.23 0 0 0-2.2-.54c-.25.05-.48.11-.7.2l-.12.04-.38.16-.2.1-.13.06-.1.06-.39.23-.13.09-.09.06-.14.1-.35.27-.1.09-.09.08-.15.14c-.13.1-.24.23-.36.35l-.09.1-.26.29-.1.14-.26.37-.14.2-.09.17-.09.17a4 4 0 0 0-.35.66v.19c0 .05 0 .13-.05.19v1.08c0 .02 0 0 0 0l.04.14v.09l.07.13v.08c0 .04 0 0 0 0l.08.12.05.08L94.94 80.4a.59.59 0 0 1-.06.03Z" fill="url(#paint14_linear)"/><path fill-rule="evenodd" clip-rule="evenodd" d="m94.88 80.43-.08-.11a.65.65 0 0 0-.05-.1c0-.05 0-.1-.06-.13v-.11l-.05-.16V78.7l.11-.39a4.35 4.35 0 0 1 .37-.79l.23-.38a5.4 5.4 0 0 1 .62-.8l.09-.1a6.72 6.72 0 0 1 1.22-1.05l.09-.07c.2-.13.41-.26.62-.37l.12-.07c.2-.1.4-.18.6-.26h.1a4 4 0 0 1 .73-.2 2.26 2.26 0 0 1 2.21.53L74.98 43.59a2.23 2.23 0 0 0-2.2-.54c-.25.05-.48.11-.7.2l-.12.04-.38.16-.2.1-.13.06-.1.06-.39.23-.13.09-.09.06-.14.1-.35.27-.1.09-.09.08-.15.14c-.13.1-.24.23-.36.35l-.09.1-.26.29-.1.14-.26.37-.14.2-.09.17-.09.17a4 4 0 0 0-.35.66v.19c0 .05 0 .13-.05.19v1.08c0 .02 0 0 0 0l.04.14v.09l.07.13v.08c0 .04 0 0 0 0l.08.12.05.08L94.94 80.4a.59.59 0 0 1-.06.03Z" fill="url(#paint15_linear)"/><path fill-rule="evenodd" clip-rule="evenodd" d="M97.17 81.07c-2 .39-3.07-.85-2.4-2.76a6.97 6.97 0 0 1 4.8-4.13c1.99-.39 3.07.85 2.4 2.75a6.95 6.95 0 0 1-4.8 4.14Z" fill="url(#paint16_linear)"/><path fill-rule="evenodd" clip-rule="evenodd" d="M97.17 81.07c-2 .39-3.07-.85-2.4-2.76a6.97 6.97 0 0 1 4.8-4.13c1.99-.39 3.07.85 2.4 2.75a6.95 6.95 0 0 1-4.8 4.14Z" fill="url(#paint17_linear)"/><defs><linearGradient id="paint0_linear" x1=".52" y1="87.18" x2="146.05" y2="93.04" gradientUnits="userSpaceOnUse"><stop offset=".12" stop-color="#2698EA"/><stop offset=".53" stop-color="#FFB176"/><stop offset=".98" stop-color="#ED5158"/></linearGradient><linearGradient id="paint1_linear" x1="69.49" y1="105.82" x2="69.49" y2="185.74" gradientUnits="userSpaceOnUse"><stop stop-color="#5A82F6"/><stop offset="1" stop-color="#fff" stop-opacity="0"/></linearGradient><linearGradient id="paint2_linear" x1="138.58" y1="158.26" x2="138.58" y2="78.21" gradientUnits="userSpaceOnUse"><stop stop-color="#fff"/><stop offset=".5" stop-color="#FCFDFF"/><stop offset=".8" stop-color="#F4F7FF"/><stop offset="1" stop-color="#E9EEFF"/></linearGradient><linearGradient id="paint3_linear" x1=".38" y1="107.95" x2="145.67" y2="118.61" gradientUnits="userSpaceOnUse"><stop offset=".12" stop-color="#2698EA"/><stop offset=".53" stop-color="#FFB176"/><stop offset=".98" stop-color="#ED5158"/></linearGradient><linearGradient id="paint4_linear" x1="69.49" y1="118.22" x2="69.49" y2="162.25" gradientUnits="userSpaceOnUse"><stop stop-color="#5A82F6"/><stop offset="1" stop-color="#fff" stop-opacity="0"/></linearGradient><linearGradient id="paint5_linear" x1="16.9" y1="74.84" x2="127.89" y2="79.45" gradientUnits="userSpaceOnUse"><stop offset=".12" stop-color="#2698EA"/><stop offset=".53" stop-color="#FFB176"/><stop offset=".98" stop-color="#ED5158"/></linearGradient><linearGradient id="paint6_linear" x1="69.5" y1="88.65" x2="69.5" y2="147.84" gradientUnits="userSpaceOnUse"><stop stop-color="#5A82F6"/><stop offset="1" stop-color="#fff" stop-opacity="0"/></linearGradient><linearGradient id="paint7_linear" x1="122.07" y1="147.84" x2="122.07" y2="27.92" gradientUnits="userSpaceOnUse"><stop stop-color="#DBE2FD"/><stop offset=".11" stop-color="#B7C9FB" stop-opacity=".8"/><stop offset=".24" stop-color="#91AFF9" stop-opacity=".59"/><stop offset=".37" stop-color="#7098F8" stop-opacity=".41"/><stop offset=".5" stop-color="#5585F6" stop-opacity=".26"/><stop offset=".63" stop-color="#4077F5" stop-opacity=".15"/><stop offset=".75" stop-color="#316CF5" stop-opacity=".07"/><stop offset=".88" stop-color="#2866F4" stop-opacity=".02"/><stop offset="1" stop-color="#2564F4" stop-opacity=".01"/></linearGradient><linearGradient id="paint8_linear" x1="33.67" y1="-7.69" x2="71.86" y2="-7" gradientUnits="userSpaceOnUse"><stop offset=".12" stop-color="#2698EA"/><stop offset=".53" stop-color="#FFB176"/><stop offset=".98" stop-color="#ED5158"/></linearGradient><linearGradient id="paint9_linear" x1="51.74" y1="3.25" x2="51.74" y2="50.15" gradientUnits="userSpaceOnUse"><stop stop-color="#5A82F6"/><stop offset="1" stop-color="#fff" stop-opacity="0"/></linearGradient><linearGradient id="paint10_linear" x1="35.35" y1="49.25" x2="69.62" y2="49.25" gradientUnits="userSpaceOnUse"><stop stop-color="#DBE2FD"/><stop offset=".11" stop-color="#B7C9FB" stop-opacity=".8"/><stop offset=".24" stop-color="#91AFF9" stop-opacity=".59"/><stop offset=".37" stop-color="#7098F8" stop-opacity=".41"/><stop offset=".5" stop-color="#5585F6" stop-opacity=".26"/><stop offset=".63" stop-color="#4077F5" stop-opacity=".15"/><stop offset=".75" stop-color="#316CF5" stop-opacity=".07"/><stop offset=".88" stop-color="#2866F4" stop-opacity=".02"/><stop offset="1" stop-color="#2564F4" stop-opacity=".01"/></linearGradient><linearGradient id="paint11_linear" x1="37.43" y1="-11.92" x2="78.56" y2="-11.19" gradientUnits="userSpaceOnUse"><stop offset=".12" stop-color="#2698EA"/><stop offset=".53" stop-color="#FFB176"/><stop offset=".98" stop-color="#ED5158"/></linearGradient><linearGradient id="paint12_linear" x1="56.9" y1="0" x2="56.9" y2="51.08" gradientUnits="userSpaceOnUse"><stop stop-color="#5A82F6"/><stop offset="1" stop-color="#fff" stop-opacity="0"/></linearGradient><linearGradient id="paint13_linear" x1="31.96" y1="52.38" x2="69.49" y2="52.38" gradientUnits="userSpaceOnUse"><stop stop-color="#fff"/><stop offset=".5" stop-color="#FCFDFF"/><stop offset=".8" stop-color="#F4F7FF"/><stop offset="1" stop-color="#E9EEFF"/></linearGradient><linearGradient id="paint14_linear" x1="67.91" y1="34.21" x2="103.65" y2="34.97" gradientUnits="userSpaceOnUse"><stop offset=".12" stop-color="#2698EA"/><stop offset=".53" stop-color="#FFB176"/><stop offset=".98" stop-color="#ED5158"/></linearGradient><linearGradient id="paint15_linear" x1="84.83" y1="42.96" x2="84.83" y2="80.43" gradientUnits="userSpaceOnUse"><stop stop-color="#5A82F6"/><stop offset="1" stop-color="#fff" stop-opacity="0"/></linearGradient><linearGradient id="paint16_linear" x1="94.57" y1="72.47" x2="102.59" y2="72.67" gradientUnits="userSpaceOnUse"><stop offset=".12" stop-color="#2698EA"/><stop offset=".53" stop-color="#FFB176"/><stop offset=".98" stop-color="#ED5158"/></linearGradient><linearGradient id="paint17_linear" x1="98.37" y1="74.11" x2="98.37" y2="81.14" gradientUnits="userSpaceOnUse"><stop stop-color="#5A82F6"/><stop offset="1" stop-color="#fff" stop-opacity="0"/></linearGradient></defs></svg>