<svg width="42" height="42" viewBox="0 0 42 42" fill="none" xmlns="http://www.w3.org/2000/svg">
<path d="M21 0C9.40212 0 0 9.40212 0 21C0 32.5979 9.40212 42 21 42C32.5979 42 42 32.5979 42 21C42 9.40212 32.5979 0 21 0ZM9.3534 23.6863C9.3534 24.5876 8.6226 25.3184 7.72128 25.3184C6.81996 25.3184 6.08916 24.5876 6.08916 23.6863V18.3137C6.08916 17.4124 6.81996 16.6816 7.72128 16.6816C8.6226 16.6816 9.3534 17.4124 9.3534 18.3137V23.6863ZM14.6647 29.1841C14.6647 30.0854 13.9339 30.8162 13.0326 30.8162C12.1313 30.8162 11.4005 30.0854 11.4005 29.1841V12.8159C11.4005 11.9146 12.1313 11.1838 13.0326 11.1838C13.9339 11.1838 14.6647 11.9146 14.6647 12.8159V29.1841ZM19.9769 33.9679C19.9769 34.8692 19.2461 35.6 18.3448 35.6C17.4434 35.6 16.7126 34.8692 16.7126 33.9679V8.03208C16.7126 7.13076 17.4434 6.39996 18.3448 6.39996C19.2461 6.39996 19.9769 7.13076 19.9769 8.03208V33.9679ZM25.2882 28.9867C25.2882 29.888 24.5574 30.6188 23.6561 30.6188C22.7548 30.6188 22.024 29.888 22.024 28.9867V13.0133C22.024 12.112 22.7548 11.3812 23.6561 11.3812C24.5574 11.3812 25.2882 12.112 25.2882 13.0133V28.9867ZM30.6004 31.4672C30.6004 32.3686 29.8696 33.0994 28.9682 33.0994C28.0669 33.0994 27.3361 32.3686 27.3361 31.4672V10.5328C27.3361 9.63144 28.0669 8.90064 28.9682 8.90064C29.8696 8.90064 30.6004 9.63144 30.6004 10.5328V31.4672ZM34.2787 25.1009C33.3774 25.1009 32.6466 24.3701 32.6466 23.4688V18.5312C32.6466 17.6299 33.3774 16.8991 34.2787 16.8991C35.18 16.8991 35.9108 17.6299 35.9108 18.5312V23.4688C35.9117 24.3701 35.1809 25.1009 34.2787 25.1009Z" fill="#3C82E9"/>
</svg>
