<svg width="42" height="42" viewBox="0 0 42 42" fill="none" xmlns="http://www.w3.org/2000/svg">
<g clip-path="url(#clip0)">
<path d="M41.992 24.9627C42.1395 30.202 39.8727 34.1192 35.4142 36.6287C29.2401 40.1207 22.5924 42.2128 15.4117 41.9976C11.3647 41.868 8.12751 39.9237 6.00565 36.5302C1.94305 30.0258 -0.243504 22.9069 0.0204354 15.2022C0.160168 11.1477 2.24839 7.97452 5.65632 5.88502C12.0763 1.94971 19.0681 -0.233119 26.6524 0.0209398C30.759 0.158339 33.9289 2.28932 36.087 5.73725C39.7588 11.6065 41.4744 18.1109 41.992 24.9627V24.9627Z" fill="black"/>
<path d="M23.8941 28.9239C22.3319 29.5127 20.6277 29.6103 19.0087 29.2038C15.2023 28.1669 12.4387 24.6723 12.4387 20.8666C12.4188 19.7247 12.6305 18.5907 13.0611 17.5332C13.4917 16.4757 14.1321 15.5169 14.9435 14.7147C16.5058 13.1616 18.6064 12.2728 20.8071 12.2338H20.8873C24.9033 12.2779 27.4496 15.3162 27.4703 15.3447C27.6374 15.551 27.8794 15.6823 28.1432 15.7097C28.4069 15.7372 28.6708 15.6586 28.8766 15.4912C29.0825 15.3238 29.2136 15.0812 29.241 14.817C29.2684 14.5528 29.19 14.2885 29.0228 14.0822C28.896 13.9266 25.884 10.2869 20.9106 10.2324C19.525 10.2365 18.154 10.5152 16.8765 11.0525C15.5989 11.5898 14.4402 12.3751 13.4669 13.3631C12.4937 14.3511 11.7253 15.5224 11.206 16.8093C10.6866 18.0962 10.4266 19.4734 10.441 20.8614C10.441 25.5563 13.8256 29.8779 18.4911 31.1326C19.2931 31.3458 20.1197 31.4521 20.9494 31.4489C22.1856 31.4451 23.4116 31.2249 24.5721 30.7982C27.6462 29.6731 30.6453 26.7125 30.5366 23.2801C29.8358 23.7858 29.1038 24.2464 28.3449 24.6593C27.7523 26.557 25.8763 28.2006 23.8941 28.9239V28.9239Z" fill="white"/>
<path d="M31.4398 18.4969C30.7772 19.1838 30.054 19.8093 29.2792 20.366C27.9439 19.0698 25.8169 18.4425 24.2772 18.4425C23.0196 18.4425 22.0545 18.7743 21.4127 19.425C21.1626 19.6808 20.967 19.9848 20.8375 20.3185C20.7081 20.6523 20.6476 21.0089 20.6597 21.3667C20.6804 22.7277 21.656 24.2003 24.3238 24.2599C25.8117 24.2962 27.266 23.814 28.5391 23.1607C29.17 22.8382 29.7755 22.4682 30.3504 22.0537C31.2705 21.406 32.1258 20.6707 32.9044 19.8579C33.0846 19.663 33.1801 19.4044 33.1699 19.1389C33.1597 18.8735 33.0447 18.6229 32.8501 18.4425C32.6555 18.262 32.3974 18.1663 32.1324 18.1765C31.8675 18.1867 31.6174 18.302 31.4372 18.4969H31.4398ZM24.3678 22.2585C23.5915 22.2404 22.6703 22.0667 22.6574 21.3356C22.6484 21.2414 22.6596 21.1464 22.6904 21.0569C22.7213 20.9675 22.7709 20.8857 22.8359 20.8171C22.9782 20.6719 23.3535 20.4309 24.2772 20.4309C25.4178 20.4639 26.5251 20.8238 27.4678 21.4678C26.5128 21.9768 25.4495 22.248 24.3678 22.2585V22.2585Z" fill="white"/>
</g>
<defs>
<clipPath id="clip0">
<rect width="42" height="42" fill="white"/>
</clipPath>
</defs>
</svg>
