<svg width="38" height="42" viewBox="0 0 38 42" fill="none" xmlns="http://www.w3.org/2000/svg">
<path d="M22.1134 0.835151L34.888 8.2195C36.8135 9.33247 38 11.3888 38 13.6142V28.3858C38 30.6112 36.8135 32.6675 34.888 33.7805L22.1134 41.1649C20.1869 42.2784 17.8131 42.2784 15.8866 41.1649L3.11199 33.7805C1.18647 32.6675 0 30.6112 0 28.3858V13.6142C0 11.3888 1.18647 9.33247 3.11199 8.2195L15.8866 0.835151C17.8131 -0.278384 20.1869 -0.278384 22.1134 0.835151Z" fill="url(#paint0_linear)"/>
<path d="M12.9648 11.3462C15.7192 11.3462 17.9521 13.5924 17.9521 16.3632V30.7589C15.1977 30.7589 12.9648 28.5127 12.9648 25.7419V11.3462Z" fill="white"/>
<path d="M20.998 20.4121C23.6321 20.4121 25.7674 22.6406 25.7674 25.3896V31.4181C23.1333 31.4181 20.998 29.1896 20.998 26.4406V20.4121Z" fill="white"/>
<defs>
<linearGradient id="paint0_linear" x1="19" y1="0" x2="19" y2="42" gradientUnits="userSpaceOnUse">
<stop stop-color="#FFE452"/>
<stop offset="1" stop-color="#FFC628"/>
</linearGradient>
</defs>
</svg>
