<svg width="42" height="42" viewBox="0 0 42 42" fill="none" xmlns="http://www.w3.org/2000/svg">
<path fill-rule="evenodd" clip-rule="evenodd" d="M29.1528 30.233C26.0443 30.233 23.5244 27.7193 23.5244 24.6183C23.5244 21.5174 26.0443 19.0034 29.1528 19.0034C32.2611 19.0034 34.7812 21.5174 34.7812 24.6186C34.7812 27.719 32.2611 30.2333 29.1528 30.2333V30.233ZM30.8377 13.8083V8.81364C32.1445 8.19753 33.0599 6.87865 33.0599 5.34799V5.23275C33.0599 3.11994 31.3275 1.39165 29.2098 1.39165H29.0947C26.9773 1.39165 25.245 3.11994 25.245 5.23275V5.34799C25.245 6.87865 26.1606 8.19809 27.4671 8.81393V13.8085C25.5213 14.1087 23.7435 14.9091 22.2774 16.0876L8.53052 5.41906C8.62124 5.07164 8.68499 4.71403 8.68555 4.33774C8.6878 1.94547 6.74679 0.00311766 4.34797 3.10022e-06C1.95 -0.00282832 0.00281163 1.93414 3.04411e-06 4.32698C-0.00280554 6.71953 1.93821 8.66188 4.33702 8.66471C5.11865 8.66584 5.84242 8.44443 6.47632 8.08427L19.9985 18.5792C18.8487 20.3109 18.1746 22.3852 18.1746 24.6186C18.1746 26.9562 18.915 29.1189 20.1659 30.8976L16.0542 35.0003C15.7289 34.9026 15.3919 34.8349 15.0344 34.8349C13.0636 34.8349 11.4658 36.4285 11.4658 38.3946C11.4658 40.361 13.0639 41.9548 15.0344 41.9548C17.0054 41.9548 18.6029 40.361 18.6029 38.3946C18.6029 38.039 18.535 37.7023 18.4372 37.3781L22.5046 33.3199C24.3513 34.7254 26.6507 35.5703 29.1526 35.5703C35.2157 35.5703 40.1302 30.6668 40.1302 24.6183C40.1302 19.1429 36.0982 14.6192 30.8377 13.8085" fill="#FF7A59"/>
</svg>
