<svg width="41" height="27" viewBox="0 0 41 27" fill="none" xmlns="http://www.w3.org/2000/svg">
<g clip-path="url(#clip0)">
<path d="M12.0797 11.4519V18.0637H9.97207V9.75301L14.3232 9.75733C16.1713 9.75733 16.8009 11.0588 16.8009 12.241V18.0637H14.6971V12.2519C14.6971 11.7567 14.4404 11.4519 13.8212 11.4519H12.0797V11.4519ZM26.411 11.3526C25.6906 11.3526 25.1331 11.7225 24.9003 12.2245C24.7623 12.5259 24.7148 12.757 24.6986 13.126H27.941C27.8995 12.2245 27.4901 11.3526 26.411 11.3526V11.3526ZM24.6986 14.5585C24.6986 15.635 25.3688 16.4273 26.5652 16.4273C27.4961 16.4273 27.9588 16.1697 28.4971 15.635L29.7988 16.8762C28.9653 17.6979 28.0907 18.1969 26.5498 18.1969C24.5322 18.1969 22.6014 17.0983 22.6014 13.8966C22.6014 11.1609 24.2872 9.61218 26.5023 9.61218C28.7477 9.61218 30.0448 11.4253 30.0448 13.8003V14.5585H24.6986V14.5585ZM20.8223 18.0533C19.1053 18.0533 18.3768 16.8597 18.3768 15.6809V7.48872H20.4811V9.75301H22.0675V11.4519H20.4811V15.5491C20.4811 16.0319 20.7094 16.2999 21.2114 16.2999H22.0675V18.0533H20.8223ZM8.09682 8.60453H5.97476V6.59152H8.09682V8.60453ZM8.10215 18.1511C6.51302 17.9986 5.97249 17.036 5.97249 15.9253L5.97479 9.75301H8.10217V18.1511H8.10215ZM33.3941 17.9735C31.8082 17.8208 31.2702 16.8597 31.2702 15.7505V6.30503H33.3941V17.9735V17.9735ZM40.8187 7.67009C38.894 -1.70093 20.6785 -2.29417 8.93743 4.84371V5.63174C20.6666 -0.387795 37.3013 -0.352333 38.8169 8.27878C39.324 11.1328 37.7135 14.1083 34.8374 15.8187V18.0563C38.2992 16.7916 41.8496 12.6903 40.8187 7.67009V7.67009ZM19.4762 24.0658C11.373 24.8138 2.92891 23.6392 1.7474 17.3159C1.16908 14.1988 2.59105 10.8944 4.47746 8.84188V7.74431C1.08156 10.7181 -0.761473 14.483 0.299554 18.9315C1.65381 24.6359 8.9009 27.8686 19.9624 26.7951C24.3389 26.3685 30.0672 24.9632 34.0495 22.7805V19.6795C30.436 21.8283 24.4564 23.6052 19.4762 24.0658" fill="#0071C5"/>
<path d="M35.8492 6.93261C35.8492 6.82977 35.7891 6.79709 35.6516 6.79709H35.519V7.08814C35.5382 7.08814 35.6346 7.09168 35.6516 7.09168C35.7891 7.09168 35.8492 7.04584 35.8492 6.94958V6.93262V6.93261ZM36.0562 7.65428H35.8989C35.8847 7.65428 35.8723 7.6454 35.8662 7.63351L35.6516 7.27027C35.6478 7.26293 35.6293 7.25405 35.622 7.25405H35.5256V7.61426C35.5256 7.63351 35.5124 7.65428 35.487 7.65428H35.3447C35.327 7.65428 35.3092 7.63351 35.3092 7.61426V6.70312C35.3092 6.65043 35.3298 6.62839 35.3744 6.62155C35.4246 6.61497 35.5611 6.61041 35.6346 6.61041C35.8959 6.61041 36.0539 6.68741 36.0539 6.93261V6.94957C36.0539 7.10131 35.9783 7.18135 35.8611 7.22061L36.0836 7.59626C36.085 7.60386 36.0902 7.61426 36.0902 7.62311C36.0902 7.63781 36.0813 7.65427 36.0562 7.65427L36.0562 7.65428ZM35.6828 6.446C35.2958 6.446 34.9827 6.76517 34.9827 7.14943C34.9827 7.5342 35.2958 7.8483 35.6828 7.8483C36.0679 7.8483 36.3839 7.5342 36.3839 7.14943C36.3839 6.76517 36.0679 6.446 35.6828 6.446ZM35.6828 7.99319C35.2126 7.99319 34.8374 7.61425 34.8374 7.14943C34.8374 6.68538 35.2126 6.30542 35.6828 6.30542C36.148 6.30542 36.5303 6.68538 36.5303 7.14943C36.5303 7.61425 36.148 7.99319 35.6828 7.99319Z" fill="#0071C5"/>
</g>
<defs>
<clipPath id="clip0">
<rect width="41" height="27" fill="white"/>
</clipPath>
</defs>
</svg>
