<svg width="42" height="42" viewBox="0 0 42 42" fill="none" xmlns="http://www.w3.org/2000/svg">
<path d="M37.8633 2.66162H20.1655C20.1655 4.77944 21.0068 6.81052 22.5044 8.30805C23.2459 9.04954 24.1261 9.63773 25.095 10.039C26.0638 10.4403 27.1021 10.6469 28.1508 10.6469H31.411V13.7969C31.4124 15.9101 32.2514 17.9367 33.7443 19.4325C35.2371 20.9283 37.262 21.7713 39.3753 21.7769V4.19987C39.3767 3.796 39.2187 3.40788 38.9356 3.11985C38.6525 2.83182 38.2671 2.66715 37.8633 2.66162V2.66162Z" fill="#2684FF"/>
<path d="M29.106 11.4766H11.4082C11.4082 13.5944 12.2495 15.6255 13.747 17.123C15.2446 18.6205 17.2756 19.4618 19.3935 19.4618H22.6537V22.6118C22.6551 24.7292 23.4968 26.7595 24.9941 28.2567C26.4913 29.7539 28.5216 30.5957 30.639 30.5971V13.0096C30.639 12.8082 30.5993 12.6089 30.5223 12.4229C30.4452 12.2369 30.3323 12.0679 30.19 11.9256C30.0476 11.7832 29.8786 11.6703 29.6926 11.5933C29.5066 11.5162 29.3073 11.4766 29.106 11.4766V11.4766Z" fill="url(#paint0_linear)"/>
<path d="M20.3438 20.291H2.625C2.62569 21.3417 2.83357 22.3819 3.23675 23.3521C3.63993 24.3223 4.2305 25.2035 4.97464 25.9452C5.71878 26.6869 6.6019 27.2746 7.57343 27.6746C8.54497 28.0746 9.58585 28.279 10.6365 28.2763H13.8968V31.4263C13.8968 33.5441 14.7381 35.5752 16.2356 37.0727C17.7331 38.5702 19.7642 39.4115 21.882 39.4115V21.8293C21.882 21.4213 21.7199 21.03 21.4315 20.7416C21.143 20.4531 20.7517 20.291 20.3438 20.291Z" fill="url(#paint1_linear)"/>
<defs>
<linearGradient id="paint0_linear" x1="30.2662" y1="11.5081" x2="22.7377" y2="19.2676" gradientUnits="userSpaceOnUse">
<stop offset="0.18" stop-color="#0052CC"/>
<stop offset="1" stop-color="#2684FF"/>
</linearGradient>
<linearGradient id="paint1_linear" x1="809.686" y1="762.358" x2="492.807" y2="1073.02" gradientUnits="userSpaceOnUse">
<stop offset="0.18" stop-color="#0052CC"/>
<stop offset="1" stop-color="#2684FF"/>
</linearGradient>
</defs>
</svg>
