<svg width="42" height="42" viewBox="0 0 42 42" fill="none" xmlns="http://www.w3.org/2000/svg">
<g clip-path="url(#clip0)">
<path d="M34.5133 0.00468387H2.68094C1.96628 0.00468387 1.2809 0.28858 0.775561 0.793917C0.270223 1.29925 -0.0136719 1.98464 -0.0136719 2.69929V39.3146C-0.0136719 40.0292 0.270223 40.7146 0.775561 41.2199C1.2809 41.7253 1.96628 42.0092 2.68094 42.0092H8.33513C9.04979 42.0092 9.73517 41.7253 10.2405 41.2199C10.7458 40.7146 11.0297 40.0292 11.0297 39.3146V13.7158C11.0297 13.0011 11.3136 12.3157 11.819 11.8104C12.3243 11.305 13.0097 11.0212 13.7244 11.0212H28.2887C29.0034 11.0212 29.6888 11.305 30.1941 11.8104C30.6994 12.3157 30.9833 13.0011 30.9833 13.7158V28.2667C30.9833 28.9813 30.6994 29.6667 30.1941 30.172C29.6888 30.6774 29.0034 30.9613 28.2887 30.9613H19.895C19.1804 30.9613 18.495 31.2452 17.9896 31.7505C17.4843 32.2558 17.2004 32.9412 17.2004 33.6559V39.2831C17.2004 39.9978 17.4843 40.6832 17.9896 41.1885C18.495 41.6938 19.1804 41.9777 19.895 41.9777H39.3142C40.0288 41.9777 40.7142 41.6938 41.2196 41.1885C41.7249 40.6832 42.0088 39.9978 42.0088 39.2831V2.68582C42.0088 1.97117 41.7249 1.28578 41.2196 0.780444C40.7142 0.275107 40.0288 -0.00878906 39.3142 -0.00878906L34.5133 0.00468387Z" fill="url(#paint0_linear)"/>
</g>
<defs>
<linearGradient id="paint0_linear" x1="2.24082" y1="4.52265" x2="37.0552" y2="35.1065" gradientUnits="userSpaceOnUse">
<stop stop-color="#A3CF60"/>
<stop offset="0.7" stop-color="#008F4B"/>
<stop offset="1" stop-color="#006242"/>
</linearGradient>
<clipPath id="clip0">
<rect width="42" height="42" fill="white"/>
</clipPath>
</defs>
</svg>
