<svg width="42" height="19" viewBox="0 0 42 19" fill="none" xmlns="http://www.w3.org/2000/svg">
<path d="M0.631888 13.3261V11.3852L3.2653 11.3728L5.89871 11.3604L5.91238 10.768C5.92151 10.3721 5.90746 10.1534 5.87003 10.1089C5.82347 10.0535 5.3763 10.0422 3.22295 10.0422H0.631888V9.41911V8.79597L3.33811 8.79626C5.03024 8.7964 6.11122 8.81487 6.22284 8.84548C6.53046 8.92985 6.8484 9.18057 7.01109 9.46706L7.1608 9.7307V10.7373C7.1608 11.86 7.151 11.9019 6.80352 12.2631C6.58888 12.4863 6.44081 12.5666 6.11787 12.635L5.87104 12.6873L5.98527 12.8867C6.2748 13.3921 7.25544 15.0627 7.31915 15.1592L7.39041 15.267L6.64456 15.2661L5.89871 15.2651L5.62824 14.7987C5.47948 14.5422 5.1409 13.9607 4.87583 13.5065L4.3939 12.6806L3.14394 12.6796L1.89398 12.6786V13.9728V15.267H1.26293H0.631888V13.3261ZM11.2141 13.9916V12.7163L10.6701 11.9664C10.3709 11.554 9.72729 10.672 9.23987 10.0063L8.35367 8.79597H9.14413H9.93459L10.8534 10.0637C11.3588 10.761 11.7947 11.3326 11.8222 11.334C11.8496 11.3353 12.2865 10.7656 12.793 10.0678L13.714 8.79921L14.5087 8.79759C15.137 8.79631 15.2938 8.80853 15.2573 8.85589C15.2319 8.88885 14.9197 9.31486 14.5634 9.80258C13.8451 10.7859 13.0084 11.9276 12.6863 12.364L12.4762 12.6487V13.9578V15.267H11.8451H11.2141V13.9916ZM16.7025 14.6079L16.7057 13.9488L18.9597 12.0355C20.1994 10.9832 21.2137 10.1042 21.2137 10.0822C21.2137 10.0602 20.198 10.0422 18.9565 10.0422H16.6993V9.41911V8.79597H19.9516H23.204V9.46305C23.204 9.82994 23.1849 10.1373 23.1617 10.1461C23.0781 10.1777 18.6896 13.9397 18.6896 13.9798C18.6896 14.0023 19.7053 14.0207 20.9468 14.0207H23.204V14.6439V15.267H19.9516H16.6993L16.7025 14.6079H16.7025ZM25.0971 13.3257V11.3844H28.3494H31.6018V12.0315V12.6786H28.9791H26.3565L26.37 13.3377L26.3835 13.9968L28.9926 14.0092L31.6018 14.0216V14.6443V15.267H28.3494H25.0971V13.3257ZM33.6405 12.0315V8.79597H34.2917H34.9428L35.3474 9.2623C37.2041 11.4019 38.8547 13.2805 38.8895 13.2937C38.9129 13.3026 38.9316 12.308 38.9316 11.0528V8.79597H39.5627H40.1937V12.0315V15.267H39.543H38.8923L36.9429 13.0261C35.8707 11.7936 34.973 10.778 34.9481 10.7692C34.9202 10.7595 34.9026 11.6289 34.9026 13.0101V15.267H34.2716H33.6405V12.0315ZM25.0971 9.41911V8.79597H28.3494H31.6018V9.41911V10.0422H28.3494H25.0971V9.41911ZM11.6995 6.38641V5.70245L12.1849 5.22492L12.6703 4.74738V5.42953V6.11169H13.3369H14.0034L13.5198 6.59103L13.0362 7.07036H12.3679H11.6995V6.38641ZM14.7203 6.53021L14.2722 6.08592V5.3079V4.52988H13.4825H12.6927L12.2335 4.07451L11.7742 3.61914H13.4844H15.1945V5.29682C15.1945 6.21954 15.1886 6.97449 15.1814 6.97449C15.1742 6.97449 14.9667 6.77457 14.7203 6.53021ZM1.07714 5.40467C1.39859 4.62035 1.67283 3.9509 1.68657 3.917C1.70492 3.87169 1.82701 3.859 2.1474 3.86907L2.58326 3.88278L3.2314 5.32078C3.58788 6.11169 3.8806 6.77497 3.88188 6.79474C3.88316 6.81452 3.7129 6.83069 3.50353 6.83069H3.12284L3.00395 6.53111L2.88505 6.23152H2.18559H1.48614L1.37029 6.53111L1.25444 6.83069H0.873559H0.492676L1.07714 5.40467ZM2.62519 5.62037C2.42372 5.11572 2.18912 4.60311 2.15455 4.59199C2.12052 4.58103 1.97856 4.92553 1.71101 5.6683C1.69466 5.71368 1.80816 5.72822 2.17884 5.72822C2.66678 5.72822 2.66812 5.72788 2.62519 5.62037ZM4.32109 5.34475V3.85881H4.63356H4.94603L5.42237 4.40629C5.68435 4.7074 5.90963 4.95377 5.92298 4.95377C5.93633 4.95377 6.1616 4.7074 6.42359 4.40629L6.89993 3.85881H7.2124H7.52487V5.34475V6.83069H7.18507H6.84528V5.89599C6.84528 5.3819 6.82672 4.96128 6.80405 4.96128C6.78137 4.96128 6.59024 5.16596 6.3793 5.41612C6.16837 5.66628 5.96302 5.87096 5.92298 5.87096C5.88293 5.87096 5.67758 5.66628 5.46665 5.41612C5.25572 5.16596 5.06458 4.96128 5.04191 4.96128C5.01923 4.96128 5.00068 5.3819 5.00068 5.89599V6.83069H4.66088H4.32109V5.34475ZM8.15591 5.34034V3.84999L9.09154 3.86638L10.0272 3.88278L10.3534 4.04145C10.5368 4.13063 10.7322 4.26824 10.7998 4.35565C11.2632 4.95558 11.2465 5.84478 10.7626 6.34365C10.4105 6.70662 9.90627 6.83069 8.78345 6.83069H8.15591V5.34034V5.34034ZM9.84253 6.2297C10.0731 6.13456 10.1834 6.03368 10.2969 5.81401C10.4077 5.59965 10.4203 5.12836 10.3214 4.89471C10.1694 4.53547 9.76855 4.33815 9.19076 4.33815H8.88405V5.32078V6.30342H9.27394C9.515 6.30342 9.73205 6.27528 9.84253 6.22969V6.2297Z" fill="black"/>
</svg>
