<svg width="42" height="42" viewBox="0 0 42 42" fill="none" xmlns="http://www.w3.org/2000/svg">
<path fill-rule="evenodd" clip-rule="evenodd" d="M37.014 0H4.99269C2.23797 0 0.00379367 2.23117 4.02481e-05 4.98588V36.9601C-0.00528665 38.2877 0.518349 39.5628 1.45523 40.5035C2.39211 41.4442 3.66506 41.9729 4.99269 41.9729H37.014C38.3405 41.9712 39.6117 41.4416 40.5471 40.5011C41.4826 39.5606 42.0053 38.2866 42 36.9601V4.98588C41.9962 2.23379 39.7661 0.00370652 37.014 0V0ZM18.1134 30.2315C18.1117 30.6753 17.9332 31.1 17.6176 31.4119C17.3019 31.7238 16.875 31.8971 16.4313 31.8936H9.43356C8.51831 31.8898 7.77833 31.1468 7.77833 30.2315V9.40657C7.77833 8.49131 8.51831 7.74831 9.43356 7.7446H16.4313C17.3476 7.74829 18.0896 8.49022 18.0932 9.40657L18.1134 30.2315ZM34.262 20.6702C34.262 21.1145 34.0842 21.5403 33.7682 21.8526C33.4521 22.1649 33.0242 22.3376 32.5799 22.3323H25.5822C24.6658 22.3285 23.9239 21.5866 23.9202 20.6702V9.40657C23.9239 8.49022 24.6658 7.74829 25.5822 7.7446H32.5799C33.4951 7.74831 34.2351 8.49131 34.2351 9.40657L34.262 20.6702Z" fill="url(#paint0_linear)"/>
<defs>
<linearGradient id="paint0_linear" x1="21.0202" y1="41.9729" x2="21.0202" y2="0" gradientUnits="userSpaceOnUse">
<stop stop-color="#0052CC"/>
<stop offset="1" stop-color="#2684FF"/>
</linearGradient>
</defs>
</svg>
