<svg width="0" height="0" class="hidden">

	<symbol xmlns="http://www.w3.org/2000/svg" viewBox="0 0 16 13" id="twitter"><path d="M16 1.5c-.6.3-1.2.4-1.9.5.7-.4 1.2-1 1.4-1.8-.6.4-1.3.6-2.1.8-.6-.6-1.5-1-2.4-1-1.7 0-3.2 1.5-3.2 3.3 0 .3 0 .5.1.7A9.2 9.2 0 0 1 1.1.6c-.3.5-.4 1-.4 1.7 0 1.1.6 2.1 1.5 2.7-.5 0-1-.2-1.5-.4 0 1.6 1.1 2.9 2.6 3.2-.3.1-.6.1-.9.1-.2 0-.4 0-.6-.1.4 1.3 1.6 2.3 3.1 2.3-1.1.9-2.5 1.4-4.1 1.4H0c1.5.9 3.2 1.5 5 1.5 6 0 9.3-5 9.3-9.3v-.4c.7-.5 1.3-1.1 1.7-1.8Z"/></symbol>

	<symbol xmlns="http://www.w3.org/2000/svg" viewBox="0 0 16 16" id="facebook"><path d="M16 8.05a8 8 0 1 0-9.25 7.9v-5.59H4.72V8.05h2.03V6.29a2.82 2.82 0 0 1 3.02-3.12c.6.01 1.2.06 1.8.16V5.3h-1.02a1.16 1.16 0 0 0-1.3 1.25v1.5h2.22l-.35 2.31H9.25v5.6A8 8 0 0 0 16 8.04Z"/></symbol>

	<symbol xmlns="http://www.w3.org/2000/svg" viewBox="0 0 16 16" id="instagram"><path d="M12.14 4.85a.96.96 0 1 0 0-1.92.96.96 0 0 0 0 1.92Z"/><path d="M8 12a4 4 0 1 1 0-8 4 4 0 0 1 0 8Zm0-6a2 2 0 1 0 0 4 2 2 0 0 0 0-4Z"/><path d="M12 16H4c-2.06 0-4-1.94-4-4V4c0-2.06 1.94-4 4-4h8c2.06 0 4 1.94 4 4v8c0 2.06-1.94 4-4 4ZM4 2c-.94 0-2 1.06-2 2v8c0 .95 1.05 2 2 2h8c.94 0 2-1.06 2-2V4c0-.94-1.06-2-2-2H4Z"/></symbol>

	<symbol xmlns="http://www.w3.org/2000/svg" viewBox="0 0 32 32" id="rows-view"><rect x="5.33" y="6.67" width="21.33" height="8" rx="1.5"/><rect x="5.33" y="17.33" width="21.33" height="8" rx="1.5"/></symbol>

	<symbol xmlns="http://www.w3.org/2000/svg" viewBox="0 0 32 32" id="grid-view"><rect x="5.33" y="5.33" width="9.33" height="9.33" rx="1.5"/><path fill-rule="evenodd" clip-rule="evenodd" d="M17.33 6.83c0-.83.67-1.5 1.5-1.5h6.34c.82 0 1.5.67 1.5 1.5v6.34c0 .83-.68 1.5-1.5 1.5h-6.34a1.5 1.5 0 0 1-1.5-1.5V6.83Zm-12 12c0-.83.67-1.5 1.5-1.5h6.34c.82 0 1.5.67 1.5 1.5v6.34c0 .83-.68 1.5-1.5 1.5H6.83a1.5 1.5 0 0 1-1.5-1.5v-6.34Zm13.5-1.5c-.83 0-1.5.67-1.5 1.5v6.34c0 .83.67 1.5 1.5 1.5h6.34c.82 0 1.5-.67 1.5-1.5v-6.34c0-.83-.68-1.5-1.5-1.5h-6.34Z"/></symbol>

	<symbol xmlns="http://www.w3.org/2000/svg" viewBox="0 0 32 28" id="heart"><path d="M27.84 4.12A7.38 7.38 0 0 0 22.63 2a7.48 7.48 0 0 0-5.21 2.12L16 5.52l-1.42-1.4a7.44 7.44 0 0 0-10.42 0 7.18 7.18 0 0 0 0 10.24l1.42 1.4L16 26l10.42-10.24 1.42-1.4A7.23 7.23 0 0 0 30 9.24a7.13 7.13 0 0 0-2.16-5.12v0Z" stroke-width="2.5" stroke-linecap="round" stroke-linejoin="round"/></symbol>

	<symbol xmlns="http://www.w3.org/2000/svg" viewBox="0 0 8 15" id="arrow-left"><path d="m7 13.5-6-6 6-6" stroke-width="2" stroke-linecap="round" stroke-linejoin="round"/></symbol>

	<symbol xmlns="http://www.w3.org/2000/svg" viewBox="0 0 8 15" id="arrow-right"><path d="m1 13.5 6-6-6-6" stroke-width="2" stroke-linecap="round" stroke-linejoin="round"/></symbol>

	<symbol xmlns="http://www.w3.org/2000/svg" viewBox="0 0 14 14" id="close"><path d="M12.31 1 6.66 6.66m0 0L1 12.3m5.66-5.65 5.65 5.65M6.66 6.66 1 1" fill="none" stroke-width="2" stroke-linecap="round"/></symbol>

	<symbol fill="none" xmlns="http://www.w3.org/2000/svg" viewBox="0 0 16 16" id="cancel"><path fill-rule="evenodd" clip-rule="evenodd" d="M3.24 3.25a.83.83 0 0 1 1.18 0L8 6.83l3.58-3.58a.83.83 0 1 1 1.18 1.18L9.17 8.01l3.58 3.58a.83.83 0 0 1-1.18 1.18L7.99 9.19l-3.57 3.58a.83.83 0 0 1-1.18-1.18L6.82 8 3.24 4.43a.83.83 0 0 1 0-1.18Z" fill="#0076D5"/></symbol>

	<symbol xmlns="http://www.w3.org/2000/svg" viewBox="0 0 16 16" id="search"><path fill-rule="evenodd" clip-rule="evenodd" d="M7.33 2.08a5.25 5.25 0 1 0 0 10.5 5.25 5.25 0 0 0 0-10.5ZM.58 7.33a6.75 6.75 0 1 1 13.5 0 6.75 6.75 0 0 1-13.5 0Z"/><path fill-rule="evenodd" clip-rule="evenodd" d="M11.47 11.47c.3-.3.77-.3 1.06 0l2.67 2.67a.75.75 0 0 1-1.06 1.06l-2.67-2.67a.75.75 0 0 1 0-1.06Z"/></symbol>

	<symbol xmlns="http://www.w3.org/2000/svg" viewBox="0 0 18 18" id="user"><path fill-rule="evenodd" clip-rule="evenodd" d="M12.97 5.47c0 2.2-1.77 3.97-3.97 3.97a3.96 3.96 0 0 1-3.97-3.97C5.03 3.27 6.8 1.5 9 1.5s3.97 1.77 3.97 3.97ZM9 16.5c-3.25 0-6-.53-6-2.57s2.76-2.55 6-2.55c3.25 0 6 .53 6 2.57s-2.76 2.55-6 2.55Z"/></symbol>

	<symbol xmlns="http://www.w3.org/2000/svg" viewBox="0 0 18 18" id="settings"><path fill-rule="evenodd" clip-rule="evenodd" d="M15.3 7.82c.27-.15.48-.37.62-.6.29-.46.26-1.03-.01-1.54l-.54-.9A1.6 1.6 0 0 0 14.01 4c-.26 0-.56.08-.8.23a1.43 1.43 0 0 1-2.1-1.2c0-.86-.7-1.53-1.59-1.53H8.48c-.89 0-1.6.67-1.6 1.54A1.42 1.42 0 0 1 4.8 4.23a1.6 1.6 0 0 0-2.18.55l-.52.9a1.5 1.5 0 0 0-.02 1.54c.12.23.35.45.61.6.22.1.36.27.49.47.38.65.15 1.5-.5 1.88-.76.43-1 1.38-.57 2.12l.51.89c.45.74 1.4 1 2.17.57a1.47 1.47 0 0 1 1.92.52c.12.2.2.43.18.66-.02.29.06.56.21.79.28.46.8.76 1.36.78h1.08c.57 0 1.08-.32 1.36-.78.14-.23.23-.5.2-.8 0-.22.06-.45.19-.65.39-.64 1.25-.88 1.93-.52.76.43 1.71.17 2.15-.57l.51-.89c.45-.74.2-1.7-.56-2.12a1.37 1.37 0 0 1-.5-1.88c.13-.2.27-.37.48-.47ZM6.83 8.98c0-1.17.98-2.11 2.18-2.11a2.12 2.12 0 1 1 0 4.24c-1.2 0-2.18-.95-2.18-2.13Z"/></symbol>

	<symbol xmlns="http://www.w3.org/2000/svg" viewBox="0 0 18 18" id="doc-3-line"><path fill-rule="evenodd" clip-rule="evenodd" d="M5.86 1.5h6.28c2.32 0 3.61 1.33 3.61 3.62v7.75c0 2.33-1.29 3.63-3.6 3.63h-6.3c-2.27 0-3.6-1.3-3.6-3.63V5.12c0-2.29 1.33-3.62 3.6-3.62Zm.2 3.5v-.01H8.3a.59.59 0 1 1 0 1.18H6.06a.59.59 0 0 1 0-1.17Zm0 4.56h5.88a.59.59 0 0 0 0-1.18H6.06a.59.59 0 0 0 0 1.18Zm0 3.42h5.88a.59.59 0 0 0 0-1.18H6.06a.6.6 0 0 0-.56.9c.12.2.34.31.56.28Z"/></symbol>

	<symbol xmlns="http://www.w3.org/2000/svg" viewBox="0 0 18 18" id="cart"><path fill-rule="evenodd" clip-rule="evenodd" d="M10.6 8.42h2.07c.31 0 .56-.26.56-.57a.56.56 0 0 0-.56-.57h-2.08a.56.56 0 0 0-.56.57c0 .31.25.57.56.57Zm4.53-3.97c.46 0 .76.16 1.06.5.3.36.35.87.28 1.32l-.7 5.03a1.93 1.93 0 0 1-1.9 1.67H5.69c-1 0-1.82-.78-1.9-1.79l-.7-8.34-1.12-.2a.58.58 0 0 1 .19-1.13l1.79.27c.25.05.44.26.46.52l.14 1.72c.03.24.22.43.46.43h10.12Zm-9.56 9.73c-.63 0-1.14.52-1.14 1.16 0 .64.51 1.16 1.14 1.16.62 0 1.13-.52 1.13-1.16 0-.64-.5-1.16-1.13-1.16Zm8.43 0c-.63 0-1.14.52-1.14 1.16 0 .64.51 1.16 1.14 1.16.62 0 1.13-.52 1.13-1.16 0-.64-.5-1.16-1.13-1.16Z"/></symbol>

	<symbol xmlns="http://www.w3.org/2000/svg" viewBox="0 0 18 18" id="tiles"><path fill-rule="evenodd" clip-rule="evenodd" d="M3.4 1.5h2.54c1.06 0 1.9.86 1.9 1.92v2.56a1.9 1.9 0 0 1-1.9 1.92H3.4c-1.04 0-1.9-.86-1.9-1.92V3.42c0-1.06.85-1.92 1.9-1.92Zm0 8.6h2.54c1.06 0 1.9.86 1.9 1.92v2.56c0 1.06-.84 1.92-1.9 1.92H3.4c-1.04 0-1.9-.86-1.9-1.92v-2.56c0-1.06.85-1.92 1.9-1.92Zm11.2-8.6h-2.54c-1.06 0-1.9.86-1.9 1.92v2.56a1.9 1.9 0 0 0 1.9 1.92h2.54c1.05 0 1.9-.86 1.9-1.92V3.42c0-1.06-.85-1.92-1.9-1.92Zm-2.54 8.6h2.54c1.05 0 1.9.86 1.9 1.92v2.56c0 1.06-.85 1.92-1.9 1.92h-2.54c-1.06 0-1.9-.86-1.9-1.92v-2.56a1.9 1.9 0 0 1 1.9-1.92Z"/></symbol>

	<symbol xmlns="http://www.w3.org/2000/svg" viewBox="0 0 18 18" id="doc"><path fill-rule="evenodd" clip-rule="evenodd" d="M14.5 6.77h.54c.19 0 .34.15.34.33v6.03c0 1.86-1.5 3.37-3.34 3.37H6.13a3.52 3.52 0 0 1-3.5-3.53V4.88c0-1.86 1.5-3.38 3.34-3.38h3.97c.2 0 .34.16.34.34v2.42c0 1.37 1.12 2.5 2.48 2.5h.84l.51.01h.4Zm.2-1.1h-1.84c-.82 0-1.5-.68-1.5-1.51V2.18c0-.32.4-.48.61-.25l1.5 1.58 1.5 1.56c.21.23.05.6-.26.6Z"/></symbol>

	<symbol xmlns="http://www.w3.org/2000/svg" viewBox="0 0 18 18" id="message"><path fill-rule="evenodd" clip-rule="evenodd" d="M12.7 2.25a3.8 3.8 0 0 1 3.8 3.79v5.92a3.8 3.8 0 0 1-3.8 3.79H5.3a3.8 3.8 0 0 1-3.8-3.79V6.04c0-2.1 1.7-3.79 3.8-3.79h7.4Zm1.2 4.9.06-.05a.58.58 0 0 0-.01-.75.63.63 0 0 0-.4-.2c-.16 0-.3.05-.42.15L9.75 9c-.43.36-1.06.36-1.5 0L4.88 6.3a.57.57 0 0 0-.8.8l.09.1 3.41 2.66a2.36 2.36 0 0 0 2.93 0l3.39-2.7Z"/></symbol>

	<symbol xmlns="http://www.w3.org/2000/svg" viewBox="0 0 18 18" id="wallet"><path fill-rule="evenodd" clip-rule="evenodd" d="M13.33 6.29h3.17c0-2.55-1.53-4.04-4.11-4.04H5.6c-2.58 0-4.11 1.49-4.11 4v5.5c0 2.51 1.53 4 4.11 4h6.78c2.58 0 4.11-1.49 4.11-4v-.24h-3.17a2.63 2.63 0 0 1-2.67-2.6c0-1.43 1.2-2.6 2.67-2.6V6.3Zm0 1.11h2.61c.3 0 .56.25.56.55v1.9c0 .3-.25.54-.56.54h-2.55c-.75.01-1.4-.48-1.57-1.2-.08-.43.03-.88.32-1.23.3-.35.73-.55 1.19-.56Zm.11 2h.25c.31 0 .57-.25.57-.56 0-.3-.26-.56-.57-.56h-.25c-.15 0-.3.06-.4.16-.11.1-.17.25-.17.4 0 .3.25.56.57.56ZM5.05 6.29H9.3c.31 0 .57-.25.57-.56 0-.31-.26-.56-.57-.56H5.05a.57.57 0 0 0-.57.55c0 .31.26.56.57.57Z"/></symbol>

	<symbol xmlns="http://www.w3.org/2000/svg" viewBox="0 0 18 18" id="doc-2-line"><path fill-rule="evenodd" clip-rule="evenodd" d="M6.7 12.3h4.03c.3 0 .56-.26.56-.57 0-.3-.25-.55-.56-.55H6.7c-.3 0-.55.24-.55.55 0 .3.25.56.55.56Zm2.5-4.87H6.7a.56.56 0 1 0 0 1.12h2.5c.3 0 .56-.25.56-.56 0-.31-.25-.56-.56-.56Zm5.3-.66h.54c.19 0 .34.15.34.33v6.03c0 1.86-1.5 3.37-3.34 3.37H6.13a3.52 3.52 0 0 1-3.5-3.53V4.88c0-1.86 1.5-3.38 3.34-3.38h3.97c.2 0 .34.16.34.34v2.42c0 1.37 1.12 2.5 2.48 2.5h.84l.51.01h.4Zm.2-1.1h-1.84c-.82 0-1.5-.68-1.5-1.51V2.18c0-.32.4-.48.61-.25l1.5 1.58 1.5 1.56c.21.23.05.6-.26.6Z"/></symbol>

	<symbol xmlns="http://www.w3.org/2000/svg" viewBox="0 0 14 14" id="check"><path fill-rule="evenodd" clip-rule="evenodd" d="M7 14A7 7 0 1 0 7 0a7 7 0 0 0 0 14Zm2.96-8.03A.75.75 0 1 0 8.9 4.91L5.73 8.08 4.43 6.76a.75.75 0 0 0-1.06 1.06L5.2 9.67c.3.29.77.29 1.07 0l3.69-3.7Z"/></symbol>

	<symbol xmlns="http://www.w3.org/2000/svg" viewBox="0 0 24 24" id="calendar"><path fill-rule="evenodd" clip-rule="evenodd" d="M2.6 9.4c0-.27.22-.5.5-.5h17.82a.5.5 0 0 1 0 1H3.09a.5.5 0 0 1-.5-.5Z"/><path fill-rule="evenodd" clip-rule="evenodd" d="M15.94 13.31c0-.28.23-.5.5-.5h.01a.5.5 0 1 1 0 1 .5.5 0 0 1-.5-.5Z"/><path fill-rule="evenodd" clip-rule="evenodd" d="M11.5 13.31c0-.28.23-.5.5-.5h.01a.5.5 0 1 1 0 1 .5.5 0 0 1-.5-.5Z"/><path fill-rule="evenodd" clip-rule="evenodd" d="M7.06 13.31a.5.5 0 1 1 .5.5.5.5 0 0 1-.5-.5Z"/><path fill-rule="evenodd" clip-rule="evenodd" d="M15.94 17.2c0-.28.23-.5.5-.5h.01a.5.5 0 1 1 0 1 .5.5 0 0 1-.5-.5Z"/><path fill-rule="evenodd" clip-rule="evenodd" d="M11.5 17.2c0-.28.23-.5.5-.5h.01a.5.5 0 1 1 0 1 .5.5 0 0 1-.5-.5Z"/><path fill-rule="evenodd" clip-rule="evenodd" d="M7.06 17.2a.5.5 0 1 1 .5.5.5.5 0 0 1-.5-.5Z"/><path fill-rule="evenodd" clip-rule="evenodd" d="M16.04 1.5c.28 0 .5.22.5.5v3.3a.5.5 0 0 1-1 0V2c0-.28.23-.5.5-.5Z"/><path fill-rule="evenodd" clip-rule="evenodd" d="M7.96 1.5c.28 0 .5.22.5.5v3.3a.5.5 0 1 1-1 0V2c0-.28.23-.5.5-.5Z"/><path fill-rule="evenodd" clip-rule="evenodd" d="M3.94 4.41a5.41 5.41 0 0 1 3.83-1.33h8.47c1.56 0 2.9.43 3.83 1.33.95.9 1.43 2.2 1.43 3.81v9.13c0 1.6-.49 2.91-1.44 3.81a5.4 5.4 0 0 1-3.83 1.34H7.77c-1.56 0-2.9-.45-3.83-1.36a5.2 5.2 0 0 1-1.44-3.87V8.22c0-1.6.5-2.9 1.44-3.8Zm.69.73c-.7.67-1.13 1.68-1.13 3.08v9.05c0 1.43.43 2.47 1.13 3.15.71.69 1.77 1.08 3.14 1.08h8.46c1.38 0 2.44-.39 3.14-1.06.7-.67 1.13-1.7 1.13-3.1V8.23c0-1.4-.42-2.42-1.12-3.09a4.42 4.42 0 0 0-3.14-1.05H7.77c-1.38 0-2.43.38-3.14 1.06Z"/></symbol>

	<symbol xmlns="http://www.w3.org/2000/svg" viewBox="0 0 14 14" id="refresh"><path d="M12.05 7.88a.6.6 0 0 0-.76.4 4.36 4.36 0 0 1-4.2 3A4.33 4.33 0 0 1 2.73 7 4.33 4.33 0 0 1 7.1 2.74c1.03 0 2.04.36 2.83 1.02l-1.32-.22a.61.61 0 0 0-.7.74.61.61 0 0 0 .5.46l2.59.43h.1a.6.6 0 0 0 .21-.03.2.2 0 0 0 .06-.04.47.47 0 0 0 .12-.07l.06-.07c0-.03.05-.05.08-.09.02-.03 0-.06.03-.08a.81.81 0 0 0 .04-.11l.46-2.44A.62.62 0 0 0 10.94 2l-.17.88A5.61 5.61 0 0 0 1.5 7.01a5.55 5.55 0 0 0 5.6 5.49 5.56 5.56 0 0 0 5.37-3.86.61.61 0 0 0-.42-.76Z"/></symbol>

	<symbol fill="none" xmlns="http://www.w3.org/2000/svg" viewBox="0 0 24 24" id="star"><path d="M4.26 9.02v4.97c0 1.82 0 1.82 1.72 2.98l4.73 2.73c.71.4 1.87.4 2.58 0l4.73-2.73c1.72-1.16 1.72-1.16 1.72-2.98V9.02c0-1.82 0-1.82-1.72-2.98L13.29 3.3a2.86 2.86 0 0 0-2.58 0L5.98 6.04C4.26 7.2 4.26 7.2 4.26 9.02Z" stroke="#8A94A6" stroke-linecap="round" stroke-linejoin="round"/><path d="m12.63 8.99.57.89c.09.14.29.28.44.32l1.02.26c.63.16.8.7.39 1.2l-.67.8a.9.9 0 0 0-.17.53l.06 1.05c.04.65-.42.98-1.02.74l-.98-.4a.86.86 0 0 0-.55 0l-.98.4c-.6.24-1.06-.1-1.02-.74l.06-1.05a.87.87 0 0 0-.17-.52l-.67-.81c-.41-.5-.24-1.04.39-1.2l1.02-.26a.85.85 0 0 0 .44-.32l.57-.9c.36-.53.92-.53 1.27 0Z" stroke="#8A94A6" stroke-linecap="round" stroke-linejoin="round"/></symbol>

	<symbol fill="none" xmlns="http://www.w3.org/2000/svg" viewBox="0 0 14 14" id="star-small"><path d="M1.2 5.1v3.73c0 1.37 0 1.37 1.29 2.24l3.54 2.04c.54.31 1.4.31 1.94 0l3.55-2.04c1.29-.87 1.29-.87 1.29-2.24V5.1c0-1.36 0-1.36-1.3-2.23L7.98.82c-.53-.3-1.4-.3-1.94 0L2.5 2.87c-1.3.87-1.3.87-1.3 2.23Z" stroke="#98A9BC" stroke-linecap="round" stroke-linejoin="round"/><path d="m7.47 5.08.43.67c.07.1.22.2.33.24l.76.2c.48.11.6.52.3.9l-.5.6a.67.67 0 0 0-.13.4l.04.78c.03.49-.31.73-.76.55l-.74-.29a.65.65 0 0 0-.41 0l-.74.3c-.45.17-.8-.08-.76-.56l.04-.79c.01-.12-.05-.3-.12-.39l-.5-.6c-.31-.38-.19-.79.29-.9l.76-.2a.63.63 0 0 0 .33-.24l.43-.67c.27-.4.69-.4.95 0Z" stroke="#98A9BC" stroke-linecap="round" stroke-linejoin="round"/></symbol>

	<symbol xmlns="http://www.w3.org/2000/svg" viewBox="0 0 14 14" id="puzzle"><path d="m11.38 3.3-2.14.1.06-.6A2.28 2.28 0 0 0 7 .29a2.28 2.28 0 0 0-2.3 2.5l.06.62-2.14-.12H2.6a.7.7 0 0 0-.7.7v2.69l.51.46L3.65 7a1.36 1.36 0 0 1 1.5 1.38 1.36 1.36 0 0 1-1.5 1.38L2.4 9.64l-.5.46v2.92a.7.7 0 0 0 .69.7h7.18a2.32 2.32 0 0 0 2.32-2.32V4a.7.7 0 0 0-.7-.7h-.02Zm-.21 8.1a1.39 1.39 0 0 1-1.39 1.39H2.83v-2.17l.73.07a2.28 2.28 0 0 0 2.51-2.3 2.28 2.28 0 0 0-2.51-2.3l-.73.07V4.23l2.42.13.49-.5-.12-1.15A1.36 1.36 0 0 1 7 1.21a1.36 1.36 0 0 1 1.38 1.5l-.12 1.14.49.51 2.42-.13v7.17Z"/><path fill-rule="evenodd" clip-rule="evenodd" d="M11.37 3.2h.03a.8.8 0 0 1 .8.79v7.41a2.42 2.42 0 0 1-2.42 2.42H2.6a.8.8 0 0 1-.8-.8V10.1a.1.1 0 0 1 .04-.07l.5-.46a.1.1 0 0 1 .08-.03l1.24.13a1.26 1.26 0 0 0 1.4-1.28 1.26 1.26 0 0 0-1.4-1.28l-1.24.13a.1.1 0 0 1-.07-.03l-.51-.46a.1.1 0 0 1-.04-.07v-2.7a.8.8 0 0 1 .8-.79h.03l2.02.11-.05-.5A2.38 2.38 0 0 1 7 .19a2.38 2.38 0 0 1 2.4 2.63l-.05.5 2.02-.12Zm0 .1h.03a.7.7 0 0 1 .7.69v7.41a2.32 2.32 0 0 1-2.32 2.32H2.6a.7.7 0 0 1-.7-.7V10.1l.51-.46 1.24.13a1.36 1.36 0 0 0 1.5-1.38 1.36 1.36 0 0 0-1.5-1.38l-1.24.13-.5-.46v-2.7a.7.7 0 0 1 .69-.69h.02l2.14.12-.06-.61A2.28 2.28 0 0 1 7 .29a2.28 2.28 0 0 1 2.3 2.5l-.06.62 2.14-.12Zm-7 2.85a2.28 2.28 0 0 1 1.7 2.24 2.28 2.28 0 0 1-2.51 2.3l-.73-.07v2.17h6.95a1.39 1.39 0 0 0 1.39-1.39V4.23l-2.42.13-.49-.5.12-1.15A1.36 1.36 0 0 0 7 1.21a1.36 1.36 0 0 0-1.38 1.5l.12 1.14-.49.51-2.42-.13v1.93l.73-.07c.27-.03.55 0 .82.06Zm-1.44-.1L3.55 6a2.38 2.38 0 0 1 2.62 2.4 2.38 2.38 0 0 1-2.62 2.4l-.62-.06v1.96h6.85a1.29 1.29 0 0 0 1.29-1.29V4.34l-2.32.12a.1.1 0 0 1-.07-.03l-.49-.5a.1.1 0 0 1-.03-.09l.12-1.14A1.26 1.26 0 0 0 7 1.3a1.26 1.26 0 0 0-1.28 1.4l.12 1.14a.1.1 0 0 1-.03.08l-.49.51a.1.1 0 0 1-.07.03l-2.32-.12v1.71Z"/></symbol>

	<symbol xmlns="http://www.w3.org/2000/svg" viewBox="0 0 14 14" id="dots"><path d="M1.38 6.13A1.1 1.1 0 0 0 .25 7.25c0 .32.1.59.32.8.22.22.49.32.8.32A1.1 1.1 0 0 0 2.5 7.25c0-.3-.11-.57-.33-.78a1.04 1.04 0 0 0-.8-.33Zm5.62 0a1.1 1.1 0 0 0-1.13 1.12c0 .32.11.59.32.8.22.22.5.32.81.32a1.1 1.1 0 0 0 1.13-1.13c0-.3-.12-.57-.34-.78A1.04 1.04 0 0 0 7 6.13Zm5.63 0a1.1 1.1 0 0 0-1.13 1.12c0 .32.1.59.32.8.22.22.49.32.8.32a1.1 1.1 0 0 0 1.13-1.13c0-.3-.11-.57-.33-.78a1.04 1.04 0 0 0-.8-.33Z"/></symbol>

	<symbol xmlns="http://www.w3.org/2000/svg" viewBox="0 0 18 18" id="minus"><path fill-rule="evenodd" clip-rule="evenodd" d="M.79 9c0-.33.26-.6.6-.6h15.23a.6.6 0 1 1 0 1.2H1.39a.6.6 0 0 1-.6-.6Z"/></symbol>

	<symbol xmlns="http://www.w3.org/2000/svg" viewBox="0 0 18 18" id="plus"><path fill-rule="evenodd" clip-rule="evenodd" d="M9 .78c.33 0 .6.27.6.6V8.4h7.02a.6.6 0 1 1 0 1.2H9.6v7.02a.6.6 0 0 1-1.2 0V9.6H1.4a.6.6 0 0 1 0-1.2H8.4V1.38c0-.33.27-.6.6-.6Z"/></symbol>

	<symbol xmlns="http://www.w3.org/2000/svg" viewBox="0 0 18 18" id="info"><path fill-rule="evenodd" clip-rule="evenodd" d="M9.003 1.984a7.015 7.015 0 1 0 0 14.03 7.015 7.015 0 0 0 0-14.03ZM.788 9a8.215 8.215 0 1 1 16.43 0A8.215 8.215 0 0 1 .789 9Z"/><path d="M8.292 7.478h1.32v5.585h-1.32V7.478Z"/><path d="M8.953 6.512a.66.66 0 1 0 0-1.32.66.66 0 0 0 0 1.32Z"/></symbol>

	<symbol xmlns="http://www.w3.org/2000/svg" viewBox="0 0 18 18" id="add"><path fill-rule="evenodd" clip-rule="evenodd" d="M8.97 1.9a7.1 7.1 0 1 0 0 14.2 7.1 7.1 0 0 0 0-14.2ZM.67 9a8.3 8.3 0 1 1 16.6 0A8.3 8.3 0 0 1 .67 9Z"/><path fill-rule="evenodd" clip-rule="evenodd" d="M8.996 4.245a.6.6 0 0 1 .6.6V8.4h3.554a.6.6 0 1 1 0 1.2H9.596v3.554a.6.6 0 0 1-1.2 0V9.6H4.842a.6.6 0 0 1 0-1.2h3.554V4.845a.6.6 0 0 1 .6-.6Z"/></symbol>

	<symbol xmlns="http://www.w3.org/2000/svg" viewBox="0 0 18 18" id="lock"><path fill-rule="evenodd" clip-rule="evenodd" d="M9.05 1.985a2.7 2.7 0 0 0-2.7 2.7v3.808a.6.6 0 0 1-1.2 0V4.685a3.9 3.9 0 0 1 7.8 0v3.808a.6.6 0 1 1-1.2 0V4.685a2.7 2.7 0 0 0-2.7-2.7Z"/><path fill-rule="evenodd" clip-rule="evenodd" d="M2.864 7.893h12.37v9.323H2.864V7.893Zm1.2 1.2v6.923h9.97V9.093h-9.97Zm4.985 1.592a.6.6 0 0 1 .6.6v2.539a.6.6 0 0 1-1.2 0v-2.539a.6.6 0 0 1 .6-.6Z"/></symbol>

	<symbol fill="none" xmlns="http://www.w3.org/2000/svg" viewBox="0 0 16 16" id="auto-renew"><path d="M8 4v2l2.67-2.67L8 .67v2a5.33 5.33 0 0 0-4.5 8.17l.97-.97A4 4 0 0 1 8 4Zm4.5 1.16-.97.97A4 4 0 0 1 8 12v-2l-2.67 2.67L8 15.33v-2a5.33 5.33 0 0 0 4.5-8.17Z" fill="#0076D5"/></symbol>

	<symbol fill="none" xmlns="http://www.w3.org/2000/svg" viewBox="0 0 16 16" id="eye"><path d="M13.4 7.4c.28.36.28.84 0 1.2-.87 1.14-2.96 3.48-5.4 3.48-2.44 0-4.53-2.34-5.4-3.47a.99.99 0 0 1 0-1.22C3.47 6.26 5.56 3.92 8 3.92c2.44 0 4.53 2.34 5.4 3.47v0Z" stroke="#0076D5" stroke-width="1.2" stroke-linecap="round" stroke-linejoin="round"/><path d="M8 9.75a1.75 1.75 0 1 0 0-3.5 1.75 1.75 0 0 0 0 3.5Z" stroke="#0076D5" stroke-width="1.2" stroke-linecap="round" stroke-linejoin="round"/></symbol>

	<symbol fill="none" xmlns="http://www.w3.org/2000/svg" viewBox="0 0 16 16" id="edit"><path d="M7.92 4.16H4.09A1.1 1.1 0 0 0 3 5.26v7.65A1.1 1.1 0 0 0 4.1 14h7.65a1.1 1.1 0 0 0 1.09-1.1V9.09" stroke="#0076D5" stroke-width="1.2" stroke-linecap="round" stroke-linejoin="round"/><path d="M12.02 3.34a1.16 1.16 0 0 1 1.64 1.64l-5.2 5.2-2.18.54.55-2.19 5.19-5.19Z" stroke="#0076D5" stroke-width="1.2" stroke-linecap="round" stroke-linejoin="round"/></symbol>

	<symbol fill="none" xmlns="http://www.w3.org/2000/svg" viewBox="0 0 16 16" id="pause"><path d="M3.83 2.17v11.66m8.34-11.66v11.66" stroke="#0076D5" stroke-width="2" stroke-linecap="round"/></symbol>

</svg>