<svg width="482" height="440" viewBox="0 0 482 440" fill="none" xmlns="http://www.w3.org/2000/svg">
<path d="M0 25.6C0 16.6392 0 12.1587 1.7439 8.73615C3.27787 5.72556 5.72556 3.27787 8.73615 1.7439C12.1587 0 16.6392 0 25.6 0H456.4C465.361 0 469.841 0 473.264 1.7439C476.274 3.27787 478.722 5.72556 480.256 8.73615C482 12.1587 482 16.6392 482 25.6V414.4C482 423.361 482 427.841 480.256 431.264C478.722 434.274 476.274 436.722 473.264 438.256C469.841 440 465.361 440 456.4 440H25.6C16.6392 440 12.1587 440 8.73615 438.256C5.72556 436.722 3.27787 434.274 1.7439 431.264C0 427.841 0 423.361 0 414.4V25.6Z" fill="#E5F1FF"/>
<path fill-rule="evenodd" clip-rule="evenodd" d="M244.216 392.256C240.994 394.114 236.697 395.135 232.119 395.135C227.548 395.135 223.251 394.114 220.054 392.256L52.4607 294.997C49.0912 293.044 47.2498 290.407 47.2498 287.54C47.2498 284.674 49.1295 282.012 52.5374 280.045L221.237 182.787C224.46 180.929 228.737 179.907 233.321 179.907C237.906 179.907 242.189 180.929 245.393 182.793L412.999 280.052C416.369 282.005 418.223 284.636 418.216 287.502C418.21 290.369 416.33 293.031 412.922 294.997L244.216 392.256ZM244.536 184.255C241.544 182.518 237.56 181.567 233.328 181.567C229.412 181.486 225.541 182.411 222.087 184.255L53.4134 281.533C50.517 283.18 48.9377 285.344 48.9377 287.566C48.9377 289.788 50.485 291.914 53.3047 293.548L220.917 390.787C223.891 392.505 227.906 393.475 232.119 393.475C236.333 393.475 240.354 392.524 243.366 390.781L412.04 293.522C414.936 291.875 416.516 289.717 416.516 287.496C416.516 285.274 414.968 283.154 412.149 281.52L244.536 184.255Z" fill="#B3C9FC"/>
<path fill-rule="evenodd" clip-rule="evenodd" d="M346.651 393.705C344.609 394.803 342.32 395.36 340.001 395.321C337.68 395.366 335.387 394.809 333.345 393.705L243.622 341.648C241.691 340.511 240.636 339.005 240.636 337.319C240.636 335.634 241.71 334.089 243.666 332.965L333.966 280.907C338.145 278.754 343.111 278.754 347.29 280.907L437.014 332.965C438.939 334.102 440 335.608 440 337.294C440 338.979 438.919 340.524 436.969 341.648L346.651 393.705ZM340.644 281.003C342.662 280.955 344.658 281.428 346.44 282.376L436.164 334.408C437.526 335.2 438.306 336.24 438.306 337.268C438.306 338.296 437.506 339.381 436.119 340.154L345.82 392.237C342.164 394.067 337.858 394.067 334.202 392.237L244.485 340.154C243.123 339.362 242.343 338.322 242.349 337.294C242.356 336.266 243.142 335.206 244.523 334.408L334.822 282.376C336.614 281.429 338.618 280.956 340.644 281.003Z" fill="#B3C9FC"/>
<path fill-rule="evenodd" clip-rule="evenodd" d="M363.23 274.523C361.634 275.388 359.841 275.828 358.025 275.8C356.215 275.834 354.427 275.401 352.834 274.542L284.19 234.71C282.675 233.829 281.805 232.565 281.805 231.224C281.805 229.884 282.688 228.6 284.222 227.719L353.32 187.888C356.582 186.211 360.454 186.211 363.716 187.888L432.328 227.719C433.875 228.6 434.751 229.865 434.744 231.205C434.738 232.546 433.862 233.823 432.328 234.71L363.23 274.523ZM362.859 189.362C361.525 188.653 360.029 188.299 358.518 188.335V188.328C357.002 188.295 355.504 188.649 354.164 189.356L285.073 229.188C284.062 229.769 283.506 230.484 283.506 231.224C283.506 231.965 284.05 232.667 285.041 233.242L353.69 273.074C355.023 273.783 356.516 274.137 358.025 274.101C359.541 274.137 361.04 273.783 362.38 273.074L431.477 233.242C432.487 232.661 433.044 231.946 433.044 231.205C433.044 230.465 432.5 229.762 431.503 229.188L362.859 189.362Z" fill="#B3C9FC"/>
<path fill-rule="evenodd" clip-rule="evenodd" d="M202.388 381.281C200.067 382.615 200.054 384.792 202.388 386.133C205.023 387.474 208.142 387.474 210.777 386.133C213.098 384.792 213.111 382.622 210.777 381.281C208.142 379.94 205.023 379.94 202.388 381.281Z" fill="#3D6BF5"/>
<path fill-rule="evenodd" clip-rule="evenodd" d="M400.659 209.448C398.338 210.789 398.325 212.959 400.659 214.3C403.294 215.641 406.413 215.641 409.048 214.3C411.369 212.959 411.382 210.789 409.048 209.448C406.413 208.107 403.294 208.107 400.659 209.448Z" fill="#3D6BF5"/>
<path fill-rule="evenodd" clip-rule="evenodd" d="M268.788 196.245C266.46 197.585 266.454 199.756 268.788 201.097C271.423 202.437 274.541 202.437 277.176 201.097C279.497 199.756 279.51 197.585 277.176 196.245C274.541 194.904 271.423 194.904 268.788 196.245Z" fill="#3D6BF5"/>
<path fill-rule="evenodd" clip-rule="evenodd" d="M401.497 356.166C399.169 357.506 399.157 359.677 401.497 361.018C404.132 362.358 407.25 362.358 409.885 361.018C412.206 359.677 412.219 357.506 409.885 356.166C407.25 354.825 404.132 354.825 401.497 356.166Z" fill="#3D6BF5"/>
<g opacity="0.4">
<path fill-rule="evenodd" clip-rule="evenodd" d="M435.55 115.068C439.061 117.356 441.269 121.183 441.49 125.368L441.24 212.548C441.24 216.338 438.56 217.858 435.24 215.958L303.18 139.698C299.668 137.416 297.46 133.591 297.24 129.408L297.49 42.2282C297.49 38.4382 300.18 36.9182 303.49 38.8182L435.55 115.068Z" fill="#2564F4"/>
</g>
<g opacity="0.6">
<path fill-rule="evenodd" clip-rule="evenodd" d="M412.43 128.309C415.942 130.591 418.15 134.416 418.37 138.599L418.12 225.779C418.12 229.569 415.44 231.089 412.12 229.189L280.06 152.929C276.548 150.647 274.34 146.821 274.12 142.639L274.37 55.4587C274.37 51.6687 277.06 50.1487 280.37 52.0487L412.43 128.309Z" fill="#2564F4"/>
</g>
<g opacity="0.8">
<path fill-rule="evenodd" clip-rule="evenodd" d="M389.31 141.538C392.822 143.82 395.03 147.645 395.25 151.828L395 238.998C395 242.788 392.32 244.308 389 242.408L256.94 166.158C253.425 163.878 251.216 160.052 251 155.868L251.25 68.6882C251.25 64.8982 253.94 63.3782 257.25 65.2782L389.31 141.538Z" fill="#2564F4"/>
</g>
<path fill-rule="evenodd" clip-rule="evenodd" d="M298.2 152.989L298.13 177.519L279.12 166.549L279.19 142.019L298.2 152.989Z" fill="white"/>
<path fill-rule="evenodd" clip-rule="evenodd" d="M270.43 86.4283L270.21 161.408L279.12 166.548L298.13 177.518L307.64 183.008L326.64 193.988L336.15 199.478L355.16 210.448L374.17 221.428L374.16 222.798L269.02 162.088L269.24 85.7383L270.43 86.4283Z" fill="white"/>
<path fill-rule="evenodd" clip-rule="evenodd" d="M326.82 131.618L326.64 193.988L307.64 183.008L307.81 120.648L326.82 131.618Z" fill="white"/>
<path fill-rule="evenodd" clip-rule="evenodd" d="M355.28 166.998L355.16 210.448L336.15 199.478L336.28 156.028L355.28 166.998Z" fill="white"/>
<g opacity="0.1">
<path fill-rule="evenodd" clip-rule="evenodd" d="M292.33 292C297.41 294.93 297.43 299.69 292.33 302.62L219.33 345.07C214.33 348 206.08 348.01 201 345.07L127.47 302.6C122.4 299.67 122.37 294.92 127.47 291.98L200.52 249.53C205.52 246.6 213.77 246.6 218.85 249.53L292.33 292Z" fill="#0246AF"/>
</g>
<path fill-rule="evenodd" clip-rule="evenodd" d="M292.47 257.54C297.56 260.47 297.57 265.23 292.52 268.17L219.34 310.7C214.28 313.64 206.06 313.64 200.97 310.7L127.3 268.17C122.22 265.24 122.19 260.47 127.3 257.54L200.43 215C205.49 212.06 213.72 212.06 218.8 215L292.47 257.54Z" fill="url(#paint0_linear)"/>
<path fill-rule="evenodd" clip-rule="evenodd" d="M296.3 262.86C296.3 264.78 295.05 266.7 292.52 268.17L219.34 310.7C214.28 313.64 206.06 313.64 200.97 310.7L127.3 268.17C124.76 266.71 123.48 264.78 123.47 262.86V267.86C123.47 269.79 124.76 271.71 127.3 273.18L201 315.69C206.09 318.63 214.31 318.62 219.37 315.69L292.55 273.16C295.08 271.69 296.34 269.76 296.33 267.84V262.84L296.3 262.86Z" fill="url(#paint1_linear)"/>
<path fill-rule="evenodd" clip-rule="evenodd" d="M210.17 299.87C209.251 299.905 208.335 299.749 207.48 299.41L144.13 262.83L207 226.31C207.844 225.982 208.745 225.829 209.65 225.86C210.572 225.823 211.492 225.98 212.35 226.32L275.7 262.9L212.82 299.42C211.978 299.755 211.075 299.909 210.17 299.87Z" fill="#2564F4"/>
<path fill-rule="evenodd" clip-rule="evenodd" d="M144.11 149.92V262.83L207.46 299.41C208.318 299.749 209.238 299.905 210.16 299.87C211.065 299.908 211.968 299.755 212.81 299.42L275.66 262.9V149.9L144.11 149.92Z" fill="url(#paint2_linear)"/>
<path fill-rule="evenodd" clip-rule="evenodd" d="M200.68 285.32C203.597 286.875 206.865 287.657 210.17 287.59C213.476 287.659 216.744 286.878 219.66 285.32L292.73 242.88C295.37 241.34 296.82 239.27 296.82 237.02C296.82 234.77 295.35 232.68 292.67 231.14L219.14 188.68C213.87 185.68 205.36 185.68 200.14 188.68L127.09 231.15C124.45 232.69 123 234.76 123 237C123 239.24 124.48 241.33 127.14 242.87L200.68 285.32ZM200.79 189.8C203.507 188.348 206.55 187.618 209.63 187.68C212.708 187.619 215.751 188.345 218.47 189.79L292 232.25C294.25 233.55 295.5 235.27 295.5 237.01C295.5 238.75 294.27 240.45 292.05 241.75L219 284.2C214.15 287 206.21 287 201.33 284.2L127.79 241.75C125.54 240.45 124.31 238.71 124.3 236.98C124.29 235.25 125.52 233.54 127.74 232.25L200.79 189.8Z" fill="white"/>
<path fill-rule="evenodd" clip-rule="evenodd" d="M200.68 259.46C203.599 261.011 206.865 261.792 210.17 261.73C213.477 261.796 216.745 261.011 219.66 259.45L292.73 217.01C295.37 215.47 296.82 213.4 296.82 211.15C296.82 208.9 295.35 206.81 292.67 205.27L219.14 162.81C213.87 159.81 205.36 159.81 200.14 162.81L127.09 205.26C124.45 206.8 123 208.87 123 211.12C123 213.37 124.48 215.46 127.14 217L200.68 259.46ZM200.79 163.93C203.507 162.478 206.55 161.748 209.63 161.81C212.709 161.752 215.752 162.482 218.47 163.93L292.01 206.38C294.26 207.68 295.51 209.42 295.51 211.15C295.51 212.88 294.28 214.58 292.06 215.88L219.01 258.33C214.15 261.15 206.22 261.16 201.33 258.33L127.79 215.88C125.54 214.58 124.31 212.86 124.3 211.12C124.29 209.38 125.52 207.68 127.74 206.38L200.79 163.93Z" fill="white"/>
<path fill-rule="evenodd" clip-rule="evenodd" d="M170.603 138.998L169.948 138.698L169.719 138.605L169.106 138.378L168.961 138.326L168.223 138.099L167.797 137.996H167.59L166.966 137.882L166.405 137.81H166.229H165.886C165.616 137.81 165.356 137.81 165.096 137.81H164.961L164.338 137.882H164.151C163.922 137.882 163.683 137.975 163.465 138.037C163.257 138.099 163.049 138.171 162.852 138.254L162.675 138.326L162.166 138.574L162 138.657L175.558 130.775H175.631H175.725L176.265 130.444H176.358H176.442C176.639 130.362 176.847 130.289 177.055 130.227C177.273 130.165 177.512 130.114 177.74 130.072H177.823H177.927L178.551 130H178.686C178.945 130 179.216 130 179.475 130H179.548H179.808H179.984L180.545 130.072L181.169 130.186H181.377L181.761 130.279L182.499 130.506L182.644 130.558L183.257 130.785H183.34L183.538 130.837L184.192 131.136L184.442 131.26C184.732 131.405 185.023 131.56 185.314 131.725L186 132.138L172.39 140L171.704 139.587C171.413 139.421 171.122 139.267 170.831 139.122L170.603 138.998Z" fill="url(#paint3_linear)"/>
<path fill-rule="evenodd" clip-rule="evenodd" d="M184.583 136.188L183.915 135.873L183.699 135.779L183.072 135.538H182.949L182.209 135.308L181.787 135.203H181.582L180.965 135.088L180.389 135.014H180.204H179.865C179.598 135.014 179.331 135.014 179.074 135.014H178.94L178.323 135.088H178.138C177.902 135.088 177.676 135.182 177.46 135.245C177.244 135.308 177.038 135.381 176.843 135.465L176.668 135.538L176.164 135.79L176 135.873L189.435 127.849H189.507H189.6L190.104 127.597H190.196H190.278C190.484 127.513 190.69 127.44 190.895 127.377C191.121 127.314 191.347 127.262 191.574 127.22H191.656H191.769L192.386 127.147H192.519C192.776 127.147 193.044 127.147 193.311 127.147H193.383H193.65H193.835L194.431 127L195.048 127.115H195.254L195.624 127.21L196.364 127.44H196.487L197.155 127.807H197.227L197.371 127.87L198.039 128.184L198.286 128.31C198.574 128.456 198.862 128.613 199.16 128.791C199.795 129.169 200.409 129.582 201 130.028L187.534 138C186.943 137.554 186.329 137.141 185.694 136.764C185.396 136.596 185.108 136.439 184.82 136.282L184.583 136.188Z" fill="url(#paint4_linear)"/>
<path fill-rule="evenodd" clip-rule="evenodd" d="M242.546 196.972C242.546 196.554 242.546 196.137 242.546 195.719V195.558C242.546 195.151 242.482 194.755 242.429 194.348V194.102C242.429 193.873 242.394 193.641 242.323 193.406V193.191C242.274 192.892 242.217 192.588 242.154 192.281V192.163C242.047 191.664 241.924 191.16 241.782 190.653V190.514C241.655 190.075 241.528 189.625 241.38 189.186C241.242 188.779 241.104 188.383 240.955 187.987L240.881 187.772C240.74 187.401 240.591 187.044 240.436 186.701L240.341 186.487C240.192 186.152 240.04 185.816 239.885 185.481V185.363C239.715 185.009 239.535 184.656 239.355 184.292L239.227 184.056C239.036 183.703 238.846 183.349 238.644 182.985L238.411 182.835C238.213 182.493 238.008 182.157 237.796 181.829L237.679 181.647C237.453 181.29 237.216 180.933 236.969 180.576L236.831 180.383C236.563 180.004 236.291 179.647 236.015 179.312L235.898 179.162C235.573 178.741 235.241 178.334 234.902 177.941L234.7 177.695L234.159 177.084L234.011 176.924L233.311 176.206L233.195 176.088C232.855 175.756 232.516 175.435 232.134 175.124L232.06 175.06C231.7 174.739 231.329 174.428 231 174.139L244.878 166C245.249 166.289 245.62 166.6 245.939 166.921L246.055 166.985C246.405 167.296 246.744 167.617 247.115 167.949L247.158 168.056L247.858 168.774L248.006 168.934L248.547 169.545L248.653 169.663L248.716 169.738C249.056 170.137 249.388 170.544 249.713 170.959L249.777 171.044V171.108C250.052 171.473 250.324 171.83 250.593 172.179L250.752 172.34L250.816 172.436C251.056 172.786 251.293 173.143 251.526 173.507V173.572L251.6 173.689C251.805 174.025 252.007 174.361 252.204 174.696V174.76C252.406 175.103 252.597 175.456 252.788 175.831L252.851 175.949L252.915 176.067C253.095 176.42 253.275 176.774 253.445 177.138V177.224C253.6 177.559 253.752 177.895 253.901 178.23L253.964 178.369V178.455C254.12 178.819 254.268 179.176 254.41 179.526V179.612V179.74C254.558 180.137 254.707 180.544 254.834 180.94C254.982 181.379 255.109 181.829 255.237 182.268V182.364C255.371 182.871 255.495 183.374 255.608 183.874V183.938C255.671 184.245 255.728 184.549 255.777 184.849V185.074C255.813 185.302 255.848 185.534 255.883 185.77V185.898C255.883 185.898 255.883 185.973 255.883 186.016C255.883 186.423 255.968 186.83 256 187.226V187.387C256 187.805 256 188.233 256 188.64C256 193.095 254.431 196.233 251.918 197.711L238.411 206C240.977 204.522 242.535 201.384 242.546 196.972Z" fill="url(#paint5_linear)"/>
<path fill-rule="evenodd" clip-rule="evenodd" d="M207.84 137.25C199.489 132.454 192.097 133.135 187.78 138.182C187.179 137.709 186.553 137.269 185.905 136.863C179.798 133.354 174.533 134.904 172.648 140.004C172.342 139.805 172.184 139.7 171.953 139.564C164.276 135.156 158.021 138.716 158 147.491C157.979 156.267 164.129 166.948 171.763 171.357L228.015 203.652C228.289 203.798 228.563 203.966 228.847 204.134C236.524 208.542 243 204.835 243 196.227C243 188.384 237.872 179.001 231.333 173.954C230.143 159.922 219.739 144.099 207.84 137.25Z" fill="white"/>
<path fill-rule="evenodd" clip-rule="evenodd" d="M231.234 171.815C231.171 171.465 231.104 171.114 231.034 170.764L230.918 170.218C230.918 169.987 230.812 169.745 230.76 169.514L230.601 168.863L230.412 168.148L230.232 167.476L230.074 166.951L229.842 166.194L229.674 165.648L229.452 164.871L229.294 164.408L228.989 163.568L228.841 163.158L228.704 162.822C228.479 162.248 228.244 161.677 227.998 161.11L227.861 160.784C227.594 160.182 227.32 159.583 227.039 158.988L226.849 158.588C226.582 158.035 226.304 157.485 226.016 156.939L225.921 156.75C225.605 156.151 225.268 155.573 224.931 154.985L224.699 154.596C224.347 154.001 223.996 153.409 223.645 152.821L223.529 152.642C223.142 152.047 222.745 151.459 222.337 150.877L222.179 150.646C221.716 149.995 221.241 149.354 220.756 148.724L220.493 148.377L219.987 147.736L219.565 147.221L219.028 146.591L218.627 146.118C218.248 145.691 217.865 145.267 217.478 144.847L217.236 144.595L216.277 143.618L215.823 143.166L215.381 142.746L214.833 142.242L214.39 141.842L213.831 141.359L213.378 140.97L212.798 140.498L212.345 140.141L211.744 139.689L211.301 139.353L210.669 138.901L210.247 138.607L209.531 138.144L209.172 137.913L208.118 137.262C207.749 137.052 207.38 136.852 207.064 136.663L206.769 136.516L205.831 136.054L205.673 135.98L204.619 135.518L204.218 135.455L203.164 135.066H203.09L202.047 134.709H201.878L201.14 134.531L200.792 134.404L199.865 134.236H199.707C199.369 134.236 199.032 134.142 198.653 134.11H198.347H197.651H196.46L195.564 134.184H195.385L194.668 134.299H194.426L193.635 134.489H193.614C193.34 134.573 193.077 134.657 192.802 134.751L192.592 134.835L191.959 135.108L191.791 135.182C191.527 135.308 191.253 135.445 191 135.602L204.787 127.607L204.914 127.534L205.578 127.198L205.746 127.124L206.115 126.946L206.379 126.851L206.59 126.767C206.853 126.672 207.117 126.578 207.38 126.504H207.443L208.234 126.294H208.476H208.719L209.193 126.126H209.372L210.163 126H211.744H212.218H212.524C212.851 126 213.188 126.074 213.525 126.116L213.641 126.221L214.569 126.389L214.959 126.483L215.591 126.63L215.75 126.662H215.918L216.972 126.977H217.046L218.1 127.366L218.3 127.45L218.49 127.523L219.376 127.912L219.47 128.101L220.409 128.563L220.704 128.71C221.073 128.9 221.442 129.099 221.758 129.309L222.812 129.961L223.17 130.192L223.887 130.654L224.309 130.948L224.941 131.4L225.384 131.736L225.985 132.188L226.438 132.545L227.018 133.018L227.534 133.354L228.093 133.837L228.535 134.236L229.084 134.741L229.526 135.161L229.8 135.455L229.98 135.644L230.939 136.621L231.181 136.873C231.568 137.286 231.951 137.71 232.33 138.144L232.414 138.228L232.741 138.607L233.279 139.237L233.7 139.752L234.206 140.393L234.343 140.571L234.47 140.739C234.955 141.37 235.429 142.011 235.893 142.662V142.735L236.009 142.903C236.416 143.485 236.813 144.073 237.2 144.668L237.284 144.794C237.657 145.376 238.008 145.968 238.338 146.57L238.454 146.77L238.57 146.969C238.907 147.557 239.234 148.135 239.561 148.734L239.635 148.881C239.923 149.427 240.2 149.977 240.467 150.531L240.583 150.762L240.657 150.919C240.945 151.515 241.219 152.113 241.479 152.716V152.821L241.564 153.041C241.81 153.609 242.045 154.179 242.27 154.754L242.354 154.964V155.1L242.502 155.51L242.808 156.351L242.966 156.813L243.103 157.212L243.229 157.59L243.398 158.137L243.63 158.893L243.788 159.418L243.851 159.628L243.967 160.091C244.03 160.332 244.093 160.563 244.157 160.805L244.315 161.456C244.368 161.698 244.431 161.929 244.473 162.16V162.381C244.473 162.486 244.473 162.601 244.536 162.706C244.606 163.057 244.673 163.407 244.736 163.757L244.831 164.282C244.895 164.65 244.947 165.028 245 165.396C245 165.501 245 165.606 245 165.722V165.953L231.561 174C231.561 173.821 231.561 173.632 231.487 173.454C231.487 173.086 231.381 172.708 231.318 172.34L231.234 171.815Z" fill="url(#paint6_linear)"/>
<defs>
<linearGradient id="paint0_linear" x1="296.299" y1="312.91" x2="296.299" y2="212.8" gradientUnits="userSpaceOnUse">
<stop stop-color="white"/>
<stop offset="0.5" stop-color="#FCFDFF"/>
<stop offset="0.8" stop-color="#F4F7FF"/>
<stop offset="1" stop-color="#E9EEFF"/>
</linearGradient>
<linearGradient id="paint1_linear" x1="123.47" y1="317.891" x2="296.3" y2="317.891" gradientUnits="userSpaceOnUse">
<stop offset="0.2" stop-color="#E0E6FD"/>
<stop offset="0.52" stop-color="white"/>
<stop offset="0.73" stop-color="#FCFDFF"/>
<stop offset="0.85" stop-color="#F4F6FE"/>
<stop offset="0.95" stop-color="#E6EBFE"/>
<stop offset="1" stop-color="#DBE2FD"/>
</linearGradient>
<linearGradient id="paint2_linear" x1="275.654" y1="299.87" x2="275.654" y2="149.92" gradientUnits="userSpaceOnUse">
<stop stop-color="#DBE2FD"/>
<stop offset="0.11" stop-color="#B7C9FB" stop-opacity="0.8"/>
<stop offset="0.24" stop-color="#91AFF9" stop-opacity="0.59"/>
<stop offset="0.37" stop-color="#7098F8" stop-opacity="0.41"/>
<stop offset="0.5" stop-color="#5585F6" stop-opacity="0.26"/>
<stop offset="0.63" stop-color="#4077F5" stop-opacity="0.15"/>
<stop offset="0.75" stop-color="#316CF5" stop-opacity="0.07"/>
<stop offset="0.88" stop-color="#2866F4" stop-opacity="0.02"/>
<stop offset="1" stop-color="#2564F4" stop-opacity="0.01"/>
</linearGradient>
<linearGradient id="paint3_linear" x1="186.01" y1="139.941" x2="161.948" y2="139.941" gradientUnits="userSpaceOnUse">
<stop offset="0.12" stop-color="#5C90FE"/>
<stop offset="0.56" stop-color="#466CF5"/>
<stop offset="0.69" stop-color="#4265F3"/>
<stop offset="0.87" stop-color="#3853EF"/>
<stop offset="1" stop-color="#2E42EB"/>
</linearGradient>
<linearGradient id="paint4_linear" x1="201.01" y1="137.978" x2="175.969" y2="137.978" gradientUnits="userSpaceOnUse">
<stop offset="0.12" stop-color="#5C90FE"/>
<stop offset="0.56" stop-color="#466CF5"/>
<stop offset="0.69" stop-color="#4265F3"/>
<stop offset="0.87" stop-color="#3853EF"/>
<stop offset="1" stop-color="#2E42EB"/>
</linearGradient>
<linearGradient id="paint5_linear" x1="256.435" y1="206.342" x2="231" y2="206.342" gradientUnits="userSpaceOnUse">
<stop offset="0.12" stop-color="#5C90FE"/>
<stop offset="0.56" stop-color="#466CF5"/>
<stop offset="0.69" stop-color="#4265F3"/>
<stop offset="0.87" stop-color="#3853EF"/>
<stop offset="1" stop-color="#2E42EB"/>
</linearGradient>
<linearGradient id="paint6_linear" x1="245.369" y1="174.179" x2="190.979" y2="174.179" gradientUnits="userSpaceOnUse">
<stop offset="0.12" stop-color="#5C90FE"/>
<stop offset="0.56" stop-color="#466CF5"/>
<stop offset="0.69" stop-color="#4265F3"/>
<stop offset="0.87" stop-color="#3853EF"/>
<stop offset="1" stop-color="#2E42EB"/>
</linearGradient>
</defs>
</svg>
