<svg width="506" height="462" viewBox="0 0 506 462" fill="none" xmlns="http://www.w3.org/2000/svg">
<path d="M0 0H506V461.909H0V0Z" fill="#F4F5F6"/>
<path fill-rule="evenodd" clip-rule="evenodd" d="M255.135 411.787C258.518 413.738 263.028 414.81 267.834 414.81C272.633 414.81 277.144 413.738 280.5 411.787L456.438 309.686C459.976 307.635 461.909 304.867 461.909 301.858C461.909 298.848 459.935 296.054 456.358 293.989L279.258 191.888C275.875 189.938 271.385 188.865 266.572 188.865C261.76 188.865 257.262 189.938 253.9 191.895L77.9478 293.996C74.4105 296.047 72.464 298.808 72.4707 301.818C72.4774 304.827 74.4508 307.622 78.0284 309.686L255.135 411.787ZM254.799 193.429C257.94 191.606 262.122 190.608 266.566 190.608C270.676 190.523 274.74 191.494 278.365 193.429L455.438 295.551C458.479 297.28 460.137 299.552 460.137 301.884C460.137 304.217 458.512 306.449 455.552 308.164L279.594 410.246C276.473 412.049 272.257 413.067 267.834 413.067C263.411 413.067 259.189 412.069 256.027 410.239L78.9547 308.138C75.9141 306.408 74.2562 304.143 74.2562 301.811C74.2562 299.478 75.8805 297.253 78.8406 295.538L254.799 193.429Z" fill="#B3C9FC"/>
<path fill-rule="evenodd" clip-rule="evenodd" d="M147.6 413.309C149.743 414.461 152.146 415.045 154.58 415.004C157.017 415.052 159.425 414.468 161.568 413.309L255.759 358.659C257.786 357.466 258.894 355.884 258.894 354.115C258.894 352.345 257.766 350.724 255.712 349.544L160.917 294.894C156.529 292.633 151.316 292.633 146.928 294.894L52.7371 349.544C50.7168 350.737 49.6025 352.319 49.6025 354.088C49.6025 355.857 50.7369 357.479 52.7841 358.659L147.6 413.309ZM153.906 294.995C151.787 294.944 149.692 295.441 147.821 296.436L53.6298 351.059C52.2002 351.89 51.3813 352.982 51.3813 354.061C51.3813 355.14 52.2203 356.28 53.6768 357.091L148.472 411.767C152.31 413.688 156.831 413.688 160.668 411.767L254.853 357.091C256.283 356.26 257.101 355.167 257.095 354.088C257.088 353.009 256.262 351.896 254.813 351.059L160.017 296.436C158.137 295.442 156.033 294.945 153.906 294.995Z" fill="#B3C9FC"/>
<path fill-rule="evenodd" clip-rule="evenodd" d="M130.195 288.192C131.871 289.1 133.753 289.562 135.659 289.532C137.559 289.569 139.437 289.114 141.109 288.212L213.171 246.397C214.762 245.472 215.674 244.145 215.674 242.738C215.674 241.33 214.748 239.983 213.137 239.058L140.599 197.243C137.175 195.482 133.11 195.482 129.685 197.243L57.6573 239.058C56.033 239.983 55.1134 241.31 55.1202 242.717C55.1269 244.125 56.0464 245.465 57.6573 246.397L130.195 288.192ZM130.585 198.791C131.986 198.046 133.555 197.675 135.142 197.712V197.705C136.733 197.67 138.306 198.042 139.713 198.785L212.244 240.6C213.305 241.21 213.889 241.96 213.889 242.738C213.889 243.515 213.318 244.252 212.278 244.856L140.21 286.671C138.811 287.415 137.244 287.787 135.659 287.75C134.068 287.787 132.494 287.415 131.088 286.671L58.55 244.856C57.4894 244.246 56.9055 243.495 56.9055 242.718C56.9055 241.94 57.476 241.203 58.5231 240.6L130.585 198.791Z" fill="#B3C9FC"/>
<path fill-rule="evenodd" clip-rule="evenodd" d="M299.045 400.266C301.482 401.667 301.495 403.952 299.045 405.36C296.279 406.767 293.005 406.767 290.239 405.36C287.803 403.952 287.789 401.674 290.239 400.266C293.005 398.859 296.279 398.859 299.045 400.266Z" fill="#0A92FF"/>
<path fill-rule="evenodd" clip-rule="evenodd" d="M90.9024 219.876C93.3389 221.284 93.3523 223.563 90.9024 224.97C88.1362 226.377 84.8623 226.377 82.0961 224.97C79.6596 223.563 79.6462 221.284 82.0961 219.876C84.8623 218.469 88.1362 218.469 90.9024 219.876Z" fill="#0A92FF"/>
<path fill-rule="evenodd" clip-rule="evenodd" d="M229.34 206.016C231.783 207.424 231.79 209.702 229.34 211.11C226.574 212.517 223.3 212.517 220.534 211.11C218.097 209.702 218.084 207.424 220.534 206.016C223.3 204.609 226.574 204.609 229.34 206.016Z" fill="#0A92FF"/>
<path fill-rule="evenodd" clip-rule="evenodd" d="M90.023 373.9C92.4662 375.307 92.4797 377.586 90.023 378.993C87.2568 380.401 83.983 380.401 81.2167 378.993C78.7802 377.586 78.7668 375.307 81.2167 373.9C83.983 372.492 87.2568 372.492 90.023 373.9Z" fill="#0A92FF"/>
<g opacity="0.1">
<path fill-rule="evenodd" clip-rule="evenodd" d="M376.79 298.992C381.637 301.798 381.657 306.33 376.79 309.126L307.13 349.634C302.359 352.44 294.486 352.44 289.639 349.634L219.473 309.126C214.635 306.33 214.606 301.798 219.473 298.992L289.133 258.485C293.904 255.689 301.777 255.689 306.624 258.485L376.79 298.992Z" fill="#0076D5"/>
</g>
<path fill-rule="evenodd" clip-rule="evenodd" d="M376.923 266.128C381.781 268.934 381.79 273.476 376.971 276.281L307.139 316.884C302.311 319.69 294.467 319.699 289.61 316.884L219.31 276.281C214.463 273.476 214.434 268.934 219.31 266.128L289.095 225.544C293.923 222.738 301.777 222.738 306.624 225.544L376.923 266.128Z" fill="url(#paint0_linear_31_14230)"/>
<path fill-rule="evenodd" clip-rule="evenodd" d="M380.579 271.205C380.579 273.037 379.386 274.878 376.972 276.281L307.14 316.884C302.311 319.69 294.468 319.699 289.61 316.884L219.311 276.281C216.887 274.898 215.666 273.037 215.656 271.205V275.976C215.656 277.818 216.887 279.65 219.311 281.052L289.639 321.656C294.496 324.461 302.34 324.461 307.169 321.656L377 281.072C379.415 279.669 380.617 277.837 380.607 275.995V271.224L380.579 271.205Z" fill="url(#paint1_linear_31_14230)"/>
<path fill-rule="evenodd" clip-rule="evenodd" d="M298.389 306.521C297.512 306.555 296.638 306.406 295.822 306.082L235.371 271.176L295.364 236.327C296.171 236.019 297.03 235.877 297.893 235.907C298.773 235.872 299.651 236.022 300.469 236.346L360.921 271.243L300.918 306.101C300.112 306.411 299.252 306.554 298.389 306.521Z" fill="#3DA9FF"/>
<path fill-rule="evenodd" clip-rule="evenodd" d="M289.333 292.647C292.119 294.127 295.236 294.872 298.389 294.813C301.544 294.876 304.663 294.127 307.445 292.637L377.153 252.129C379.672 250.66 381.056 248.684 381.056 246.537C381.056 244.39 379.653 242.396 377.096 240.926L306.949 200.466C301.92 197.604 293.799 197.604 288.818 200.466L219.11 240.926C216.591 242.396 215.208 244.371 215.208 246.518C215.208 248.665 216.62 250.66 219.158 252.129L289.333 292.647ZM289.438 201.535C292.031 200.15 294.935 199.454 297.874 199.512C300.808 199.443 303.711 200.123 306.309 201.487L376.485 241.976C378.632 243.217 379.824 244.877 379.824 246.528C379.824 248.179 378.651 249.81 376.532 251.041L306.824 291.568C302.187 294.259 294.61 294.269 289.953 291.568L219.778 251.061C217.631 249.82 216.457 248.179 216.448 246.518C216.438 244.858 217.612 243.236 219.73 241.995L289.438 201.535Z" fill="white"/>
<path fill-rule="evenodd" clip-rule="evenodd" d="M289.333 267.96C292.119 269.44 295.236 270.186 298.389 270.126C301.544 270.19 304.663 269.44 307.445 267.951L377.172 227.443C379.691 225.983 381.075 224.017 381.075 221.86C381.075 219.704 379.672 217.719 377.115 216.24L306.949 175.732C301.92 172.869 293.799 172.869 288.818 175.732L219.11 216.24C216.591 217.709 215.208 219.685 215.208 221.832C215.208 223.979 216.62 225.973 219.158 227.443L289.333 267.96ZM289.438 176.801C292.031 175.416 294.935 174.719 297.874 174.778C300.812 174.723 303.715 175.42 306.309 176.801L376.475 217.309C378.632 218.597 379.824 220.219 379.824 221.87C379.824 223.521 378.651 225.153 376.532 226.384L306.824 266.891C302.187 269.582 294.62 269.582 289.953 266.891L219.778 226.374C217.631 225.134 216.457 223.483 216.448 221.832C216.438 220.181 217.612 218.549 219.73 217.318L289.438 176.801Z" fill="white"/>
<path fill-rule="evenodd" clip-rule="evenodd" d="M275.411 182.746C272.338 184.741 270.405 188.086 270.21 191.744L270.354 239.648C270.354 242.959 272.701 244.295 275.573 242.634L327.694 212.547C330.764 210.55 332.693 207.206 332.885 203.549L332.752 155.617C332.752 152.315 330.404 150.979 327.523 152.639L275.411 182.746Z" fill="#3DA9FF"/>
<path fill-rule="evenodd" clip-rule="evenodd" d="M265.038 188.5C265.038 188.414 265.038 188.338 265.038 188.252C265.043 188.166 265.043 188.08 265.038 187.994V187.737C265.043 187.651 265.043 187.565 265.038 187.479C265.034 187.393 265.034 187.307 265.038 187.221L265.095 186.954C265.095 186.859 265.095 186.773 265.162 186.677C265.229 186.582 265.162 186.496 265.229 186.401C265.247 186.329 265.269 186.259 265.296 186.191C265.317 186.099 265.346 186.01 265.382 185.924L265.468 185.656C265.503 185.575 265.535 185.493 265.563 185.408L265.668 185.151L265.754 184.96L265.868 184.712C265.868 184.616 265.954 184.521 266.002 184.435L266.164 184.12L266.345 183.796V183.738C266.345 183.738 266.345 183.738 266.345 183.662C266.47 183.452 266.603 183.242 266.737 183.042L267.061 182.584L267.29 182.278L267.491 182.03L267.691 181.801L267.901 181.572L268.054 181.41C268.13 181.334 268.197 181.257 268.273 181.19L268.502 180.981L268.731 180.78L268.855 180.685L268.951 180.618L269.18 180.437L269.399 180.284L269.628 180.131L269.848 179.998L322.341 149.653L322.512 149.557L322.722 149.452L322.932 149.347L323.142 149.261L323.352 149.185L323.505 149.128L323.715 149.071H323.934H324.163H324.946H325.242L325.595 149.166C325.739 149.223 325.879 149.29 326.015 149.366L331.187 152.372C330.949 152.236 330.691 152.139 330.423 152.086C330.132 152.047 329.837 152.047 329.545 152.086C329.22 152.117 328.899 152.187 328.591 152.296C328.226 152.419 327.874 152.578 327.541 152.773L275.411 182.746C275.044 182.958 274.696 183.201 274.371 183.471C274.037 183.749 273.718 184.045 273.416 184.359C273.076 184.704 272.757 185.071 272.462 185.456C272.195 185.828 271.947 186.21 271.708 186.611V186.668C271.482 187.06 271.278 187.465 271.098 187.88C270.917 188.296 270.76 188.723 270.63 189.158C270.504 189.581 270.406 190.011 270.334 190.447C270.267 190.866 270.232 191.291 270.229 191.716L270.372 239.619C270.371 239.997 270.406 240.374 270.477 240.745C270.542 241.073 270.641 241.392 270.773 241.699C270.877 241.919 271.008 242.124 271.164 242.31L271.308 242.491C271.476 242.673 271.668 242.83 271.88 242.959L266.737 239.991C266.526 239.862 266.336 239.701 266.174 239.514C266.118 239.461 266.067 239.404 266.021 239.342C265.964 239.256 265.897 239.19 265.84 239.104C265.762 238.993 265.695 238.874 265.639 238.751C265.639 238.674 265.563 238.579 265.525 238.493C265.487 238.407 265.458 238.312 265.429 238.216C265.401 238.121 265.429 238.045 265.363 237.949C265.296 237.854 265.363 237.873 265.363 237.835C265.358 237.797 265.358 237.758 265.363 237.72C265.357 237.637 265.357 237.555 265.363 237.472V237.224C265.362 237.06 265.362 236.894 265.362 236.728L265.228 188.825L265.038 188.5Z" fill="#0076D5"/>
<path fill-rule="evenodd" clip-rule="evenodd" d="M301.5 179.473C310.241 174.425 317.35 178.471 317.379 188.519C317.407 198.567 310.346 210.791 301.605 215.839C292.864 220.887 285.746 216.793 285.717 206.783C285.688 196.773 292.75 184.502 301.5 179.473Z" fill="white"/>
<path fill-rule="evenodd" clip-rule="evenodd" d="M296.681 190.313L310.193 191.468C310.544 191.497 310.851 191.717 310.991 192.04C311.131 192.364 311.081 192.738 310.861 193.014L297.387 209.77C297.133 210.087 296.707 210.208 296.324 210.073C295.942 209.937 295.687 209.575 295.688 209.169V191.258C295.691 191 295.798 190.753 295.985 190.575C296.172 190.397 296.423 190.303 296.681 190.313Z" fill="#3DA9FF"/>
<g opacity="0.4">
<path fill-rule="evenodd" clip-rule="evenodd" d="M68.6664 120.093C65.3093 122.28 63.1989 125.94 62.9873 129.941L63.2263 213.291C63.2263 216.915 65.7886 218.368 68.9628 216.551L195.222 143.641C198.58 141.459 200.691 137.802 200.901 133.803L200.662 50.4527C200.662 46.8292 198.09 45.376 194.925 47.1925L68.6664 120.093Z" fill="#3DA9FF"/>
</g>
<g opacity="0.6">
<path fill-rule="evenodd" clip-rule="evenodd" d="M90.7709 132.751C87.4129 134.933 85.3018 138.59 85.0918 142.589L85.3308 225.94C85.3308 229.563 87.8931 231.017 91.0673 229.2L217.326 156.29C220.684 154.108 222.795 150.451 223.005 146.452L222.766 63.1016C222.766 59.4781 220.195 58.0248 217.03 59.8414L90.7709 132.751Z" fill="#3DA9FF"/>
</g>
<g opacity="0.8">
<path fill-rule="evenodd" clip-rule="evenodd" d="M112.875 145.4C109.517 147.582 107.406 151.239 107.196 155.238L107.435 238.579C107.435 242.203 109.998 243.656 113.172 241.839L239.431 168.939C242.791 166.759 244.903 163.101 245.11 159.101L244.871 75.7504C244.871 72.1269 242.299 70.6737 239.134 72.4902L112.875 145.4Z" fill="#3DA9FF"/>
<path fill-rule="evenodd" clip-rule="evenodd" d="M176.575 142.845C185.316 137.797 192.425 141.843 192.454 151.891C192.483 161.939 185.421 174.163 176.68 179.211C167.939 184.259 160.821 180.166 160.792 170.156C160.763 160.146 167.825 147.874 176.575 142.845Z" fill="white"/>
<path fill-rule="evenodd" clip-rule="evenodd" d="M171.756 153.685L185.268 154.84C185.619 154.869 185.926 155.089 186.066 155.412C186.205 155.736 186.155 156.11 185.936 156.386L172.462 173.142C172.208 173.459 171.782 173.58 171.399 173.445C171.017 173.309 170.761 172.947 170.763 172.541V154.63C170.766 154.372 170.872 154.126 171.059 153.948C171.246 153.77 171.498 153.675 171.756 153.685Z" fill="#3DA9FF"/>
</g>
<defs>
<linearGradient id="paint0_linear_31_14230" x1="380.55" y1="318.965" x2="380.55" y2="223.445" gradientUnits="userSpaceOnUse">
<stop stop-color="white"/>
<stop offset="0.5" stop-color="#FCFDFF"/>
<stop offset="0.8" stop-color="#F4F7FF"/>
<stop offset="1" stop-color="#E9EEFF"/>
</linearGradient>
<linearGradient id="paint1_linear_31_14230" x1="215.656" y1="323.738" x2="380.579" y2="323.738" gradientUnits="userSpaceOnUse">
<stop offset="0.2" stop-color="#E0E6FD"/>
<stop offset="0.52" stop-color="white"/>
<stop offset="0.73" stop-color="#FCFDFF"/>
<stop offset="0.85" stop-color="#F4F6FE"/>
<stop offset="0.95" stop-color="#E6EBFE"/>
<stop offset="1" stop-color="#DBE2FD"/>
</linearGradient>
</defs>
</svg>
