<svg width="482" height="440" viewBox="0 0 482 440" fill="none" xmlns="http://www.w3.org/2000/svg">
<path d="M0 0H482V440H0V0Z" fill="white"/>
<path fill-rule="evenodd" clip-rule="evenodd" d="M243.034 392.256C246.256 394.114 250.553 395.135 255.131 395.135C259.702 395.135 263.999 394.114 267.196 392.256L434.789 294.997C438.159 293.044 440 290.407 440 287.54C440 284.674 438.12 282.012 434.713 280.045L266.013 182.787C262.79 180.929 258.513 179.907 253.929 179.907C249.344 179.907 245.061 180.929 241.857 182.793L74.2509 280.052C70.8814 282.005 69.0272 284.636 69.0336 287.502C69.04 290.369 70.9198 293.031 74.3277 294.997L243.034 392.256ZM242.714 184.255C245.706 182.518 249.69 181.567 253.922 181.567C257.838 181.486 261.709 182.411 265.163 184.255L433.837 281.533C436.733 283.18 438.312 285.344 438.312 287.566C438.312 289.788 436.765 291.914 433.945 293.548L266.333 390.787C263.36 392.505 259.344 393.475 255.131 393.475C250.917 393.475 246.896 392.524 243.884 390.781L75.21 293.522C72.3136 291.875 70.7343 289.717 70.7343 287.496C70.7343 285.274 72.2816 283.154 75.1013 281.52L242.714 184.255Z" fill="#B3C9FC"/>
<path fill-rule="evenodd" clip-rule="evenodd" d="M140.599 393.705C142.641 394.803 144.93 395.359 147.249 395.32C149.57 395.366 151.863 394.809 153.905 393.705L243.628 341.647C245.559 340.511 246.614 339.004 246.614 337.319C246.614 335.633 245.54 334.088 243.584 332.965L153.284 280.907C149.105 278.753 144.139 278.753 139.96 280.907L50.2359 332.965C48.3114 334.101 47.25 335.608 47.25 337.293C47.25 338.979 48.3305 340.524 50.2806 341.647L140.599 393.705ZM146.606 281.003C144.588 280.955 142.592 281.428 140.81 282.375L51.0863 334.408C49.7244 335.199 48.9444 336.24 48.9444 337.268C48.9444 338.296 49.7436 339.381 51.1311 340.153L141.43 392.237C145.086 394.067 149.392 394.067 153.048 392.237L242.765 340.153C244.127 339.362 244.907 338.321 244.901 337.293C244.894 336.265 244.108 335.206 242.727 334.408L152.428 282.375C150.636 281.428 148.632 280.956 146.606 281.003Z" fill="#B3C9FC"/>
<path fill-rule="evenodd" clip-rule="evenodd" d="M124.02 274.523C125.616 275.388 127.409 275.828 129.224 275.8C131.035 275.834 132.823 275.401 134.416 274.542L203.06 234.71C204.575 233.829 205.445 232.565 205.445 231.224C205.445 229.884 204.562 228.6 203.028 227.719L133.93 187.888C130.668 186.211 126.796 186.211 123.534 187.888L54.9225 227.719C53.3752 228.6 52.4992 229.865 52.5056 231.205C52.512 232.546 53.3879 233.823 54.9225 234.71L124.02 274.523ZM124.391 189.362C125.725 188.653 127.22 188.299 128.732 188.335V188.328C130.247 188.295 131.746 188.649 133.086 189.356L202.177 229.188C203.188 229.769 203.744 230.484 203.744 231.224C203.744 231.965 203.2 232.667 202.209 233.242L133.559 273.074C132.227 273.783 130.734 274.137 129.224 274.101C127.709 274.137 126.21 273.783 124.87 273.074L55.7727 233.242C54.7625 232.661 54.2063 231.946 54.2063 231.205C54.2063 230.465 54.7497 229.762 55.7472 229.188L124.391 189.362Z" fill="#B3C9FC"/>
<path fill-rule="evenodd" clip-rule="evenodd" d="M284.862 381.281C287.183 382.616 287.195 384.793 284.862 386.133C282.227 387.474 279.108 387.474 276.473 386.133C274.152 384.793 274.139 382.622 276.473 381.281C279.108 379.941 282.227 379.941 284.862 381.281Z" fill="#0A92FF"/>
<path fill-rule="evenodd" clip-rule="evenodd" d="M86.5908 209.447C88.9118 210.788 88.9246 212.959 86.5908 214.3C83.9558 215.64 80.8372 215.64 78.2022 214.3C75.8813 212.959 75.8685 210.788 78.2022 209.447C80.8372 208.107 83.9558 208.107 86.5908 209.447Z" fill="#0A92FF"/>
<path fill-rule="evenodd" clip-rule="evenodd" d="M218.462 196.245C220.79 197.585 220.796 199.756 218.462 201.097C215.827 202.437 212.709 202.437 210.074 201.097C207.753 199.756 207.74 197.585 210.074 196.245C212.709 194.904 215.827 194.904 218.462 196.245Z" fill="#0A92FF"/>
<path fill-rule="evenodd" clip-rule="evenodd" d="M85.7533 356.165C88.0806 357.506 88.0934 359.677 85.7533 361.017C83.1182 362.358 79.9997 362.358 77.3646 361.017C75.0437 359.677 75.0309 357.506 77.3646 356.165C79.9997 354.825 83.1182 354.825 85.7533 356.165Z" fill="#0A92FF"/>
<g opacity="0.1">
<path fill-rule="evenodd" clip-rule="evenodd" d="M358.919 284.811C363.536 287.483 363.554 291.801 358.919 294.464L292.563 333.051C288.018 335.723 280.519 335.723 275.901 333.051L209.063 294.464C204.455 291.801 204.427 287.483 209.063 284.811L275.419 246.224C279.964 243.561 287.463 243.561 292.081 246.224L358.919 284.811Z" fill="#0076D5"/>
</g>
<path fill-rule="evenodd" clip-rule="evenodd" d="M359.046 253.505C363.672 256.178 363.682 260.505 359.091 263.177L292.572 301.854C287.972 304.527 280.5 304.536 275.873 301.854L208.908 263.177C204.291 260.505 204.264 256.178 208.908 253.505L275.383 214.846C279.982 212.174 287.463 212.174 292.081 214.846L359.046 253.505Z" fill="url(#paint0_linear_28_18820)"/>
<path fill-rule="evenodd" clip-rule="evenodd" d="M362.528 258.341C362.528 260.086 361.391 261.841 359.092 263.177L292.572 301.854C287.972 304.527 280.501 304.536 275.874 301.854L208.909 263.177C206.6 261.859 205.437 260.086 205.427 258.341V262.886C205.427 264.64 206.6 266.386 208.909 267.722L275.901 306.399C280.528 309.072 288 309.072 292.599 306.399L359.119 267.74C361.419 266.404 362.564 264.659 362.555 262.904V258.359L362.528 258.341Z" fill="url(#paint1_linear_28_18820)"/>
<path fill-rule="evenodd" clip-rule="evenodd" d="M284.236 291.983C283.401 292.015 282.568 291.873 281.791 291.565L224.207 258.314L281.355 225.118C282.123 224.825 282.942 224.689 283.764 224.718C284.602 224.685 285.438 224.827 286.218 225.136L343.802 258.377L286.645 291.583C285.877 291.878 285.058 292.014 284.236 291.983Z" fill="#3DA9FF"/>
<path fill-rule="evenodd" clip-rule="evenodd" d="M275.61 278.766C278.263 280.176 281.232 280.886 284.236 280.829C287.242 280.89 290.213 280.176 292.863 278.757L359.264 240.17C361.664 238.771 362.982 236.889 362.982 234.844C362.982 232.799 361.646 230.899 359.21 229.499L292.39 190.958C287.6 188.231 279.864 188.231 275.119 190.958L208.718 229.499C206.318 230.899 205 232.78 205 234.826C205 236.871 206.345 238.771 208.763 240.17L275.61 278.766ZM275.71 191.976C278.179 190.657 280.946 189.993 283.745 190.049C286.54 189.983 289.306 190.631 291.781 191.931L358.628 230.499C360.673 231.681 361.809 233.262 361.809 234.835C361.809 236.407 360.691 237.962 358.673 239.134L292.272 277.739C287.854 280.302 280.637 280.311 276.201 277.739L209.354 239.152C207.309 237.971 206.191 236.407 206.181 234.826C206.172 233.244 207.29 231.699 209.308 230.517L275.71 191.976Z" fill="white"/>
<path fill-rule="evenodd" clip-rule="evenodd" d="M275.61 255.251C278.263 256.661 281.232 257.371 284.236 257.314C287.242 257.374 290.213 256.661 292.863 255.241L359.282 216.655C361.682 215.264 363 213.392 363 211.337C363 209.283 361.664 207.392 359.228 205.983L292.39 167.397C287.6 164.67 279.864 164.67 275.119 167.397L208.718 205.983C206.318 207.383 205 209.265 205 211.31C205 213.355 206.345 215.255 208.763 216.655L275.61 255.251ZM275.71 168.415C278.179 167.096 280.946 166.432 283.745 166.488C286.544 166.436 289.31 167.099 291.781 168.415L358.618 207.002C360.673 208.229 361.809 209.774 361.809 211.347C361.809 212.919 360.691 214.473 358.673 215.646L292.272 254.233C287.854 256.796 280.646 256.796 276.201 254.233L209.354 215.637C207.309 214.455 206.191 212.883 206.181 211.31C206.172 209.738 207.29 208.183 209.308 207.011L275.71 168.415Z" fill="white"/>
<path fill-rule="evenodd" clip-rule="evenodd" d="M262.348 174.078C259.421 175.978 257.579 179.165 257.394 182.65L257.53 228.281C257.53 231.435 259.767 232.708 262.503 231.126L312.151 202.466C315.076 200.564 316.913 197.378 317.096 193.894L316.969 148.236C316.969 145.091 314.733 143.818 311.988 145.4L262.348 174.078Z" fill="#3DA9FF"/>
<path fill-rule="evenodd" clip-rule="evenodd" d="M252.467 179.559C252.467 179.478 252.467 179.405 252.467 179.323C252.472 179.241 252.472 179.159 252.467 179.078V178.832C252.472 178.75 252.472 178.668 252.467 178.587C252.463 178.505 252.463 178.423 252.467 178.341L252.522 178.087C252.522 177.996 252.522 177.914 252.585 177.823C252.649 177.732 252.585 177.65 252.649 177.56C252.666 177.492 252.687 177.425 252.713 177.36C252.733 177.273 252.76 177.188 252.794 177.105L252.876 176.851C252.91 176.773 252.941 176.694 252.967 176.614L253.067 176.369L253.149 176.187L253.258 175.951C253.258 175.86 253.34 175.769 253.385 175.687L253.54 175.387L253.713 175.078V175.023C253.713 175.023 253.713 175.023 253.713 174.951C253.831 174.751 253.958 174.551 254.085 174.36L254.394 173.924L254.612 173.633L254.803 173.396L254.994 173.178L255.194 172.96L255.34 172.806C255.412 172.733 255.476 172.66 255.549 172.596L255.767 172.396L255.985 172.206L256.103 172.115L256.194 172.051L256.412 171.878L256.621 171.733L256.839 171.588L257.048 171.46L307.052 142.554L307.215 142.464L307.415 142.364L307.615 142.264L307.815 142.182L308.015 142.109L308.161 142.055L308.361 142H308.57H308.788H309.533H309.815L310.151 142.091C310.289 142.145 310.423 142.209 310.551 142.282L315.478 145.145C315.252 145.015 315.006 144.923 314.751 144.872C314.473 144.835 314.192 144.835 313.915 144.872C313.605 144.902 313.299 144.969 313.006 145.072C312.658 145.189 312.323 145.341 312.006 145.527L262.348 174.078C261.999 174.28 261.667 174.511 261.357 174.769C261.039 175.034 260.735 175.316 260.448 175.614C260.124 175.943 259.82 176.293 259.539 176.66C259.285 177.014 259.048 177.378 258.821 177.76V177.814C258.605 178.188 258.411 178.573 258.239 178.968C258.067 179.365 257.918 179.772 257.794 180.187C257.674 180.589 257.58 180.999 257.512 181.414C257.448 181.813 257.415 182.218 257.412 182.623L257.548 228.254C257.547 228.614 257.581 228.973 257.648 229.326C257.71 229.638 257.805 229.943 257.93 230.235C258.029 230.445 258.154 230.64 258.303 230.817L258.439 230.99C258.6 231.163 258.783 231.313 258.985 231.435L254.085 228.608C253.884 228.485 253.703 228.332 253.549 228.154C253.496 228.104 253.447 228.049 253.403 227.99C253.349 227.908 253.285 227.845 253.231 227.763C253.156 227.657 253.093 227.544 253.04 227.427C253.04 227.354 252.967 227.263 252.931 227.181C252.894 227.099 252.867 227.008 252.84 226.917C252.813 226.827 252.84 226.754 252.776 226.663C252.713 226.572 252.776 226.59 252.776 226.554C252.772 226.518 252.772 226.481 252.776 226.445C252.771 226.366 252.771 226.287 252.776 226.208V225.972C252.776 225.816 252.776 225.658 252.776 225.5L252.648 179.869L252.467 179.559Z" fill="#0076D5"/>
<path fill-rule="evenodd" clip-rule="evenodd" d="M287.2 170.96C295.526 166.152 302.298 170.006 302.325 179.577C302.353 189.149 295.626 200.793 287.3 205.602C278.974 210.41 272.192 206.511 272.165 196.975C272.138 187.44 278.864 175.751 287.2 170.96Z" fill="white"/>
<path fill-rule="evenodd" clip-rule="evenodd" d="M282.609 181.286L295.48 182.386C295.815 182.414 296.107 182.623 296.24 182.932C296.373 183.24 296.326 183.596 296.117 183.859L283.282 199.821C283.04 200.122 282.634 200.238 282.269 200.109C281.905 199.98 281.662 199.634 281.664 199.248V182.186C281.666 181.94 281.768 181.706 281.946 181.536C282.124 181.367 282.363 181.277 282.609 181.286Z" fill="#3DA9FF"/>
<g opacity="0.4">
<path fill-rule="evenodd" clip-rule="evenodd" d="M65.4093 114.397C62.2114 116.48 60.2012 119.966 59.9996 123.777L60.2273 203.175C60.2273 206.626 62.6681 208.01 65.6917 206.28L185.962 136.828C189.161 134.75 191.172 131.266 191.372 127.457L191.144 48.0597C191.144 44.6081 188.694 43.2238 185.68 44.9542L65.4093 114.397Z" fill="#3DA9FF"/>
</g>
<g opacity="0.6">
<path fill-rule="evenodd" clip-rule="evenodd" d="M86.4654 126.455C83.2667 128.533 81.2558 132.017 81.0557 135.826L81.2834 215.223C81.2834 218.675 83.7242 220.059 86.7478 218.329L207.018 148.877C210.217 146.799 212.228 143.315 212.428 139.506L212.2 60.1086C212.2 56.657 209.75 55.2727 206.736 57.0031L86.4654 126.455Z" fill="#3DA9FF"/>
</g>
<g opacity="0.8">
<path fill-rule="evenodd" clip-rule="evenodd" d="M107.521 138.504C104.323 140.582 102.312 144.066 102.112 147.875L102.339 227.263C102.339 230.715 104.78 232.099 107.804 230.369L228.074 160.926C231.275 158.85 233.287 155.365 233.484 151.555L233.256 72.1575C233.256 68.7059 230.806 67.3216 227.792 69.0519L107.521 138.504Z" fill="#3DA9FF"/>
<path fill-rule="evenodd" clip-rule="evenodd" d="M168.2 136.07C176.526 131.261 183.298 135.115 183.325 144.687C183.353 154.259 176.626 165.903 168.3 170.711C159.973 175.52 153.192 171.62 153.165 162.085C153.138 152.55 159.864 140.86 168.2 136.07Z" fill="white"/>
<path fill-rule="evenodd" clip-rule="evenodd" d="M163.609 146.396L176.48 147.496C176.815 147.523 177.107 147.733 177.24 148.041C177.373 148.349 177.326 148.706 177.116 148.968L164.282 164.93C164.04 165.232 163.634 165.347 163.269 165.218C162.905 165.089 162.662 164.744 162.664 164.357V147.296C162.666 147.05 162.768 146.815 162.946 146.646C163.124 146.476 163.363 146.386 163.609 146.396Z" fill="#3DA9FF"/>
</g>
<defs>
<linearGradient id="paint0_linear_28_18820" x1="362.5" y1="303.836" x2="362.5" y2="212.846" gradientUnits="userSpaceOnUse">
<stop stop-color="white"/>
<stop offset="0.5" stop-color="#FCFDFF"/>
<stop offset="0.8" stop-color="#F4F7FF"/>
<stop offset="1" stop-color="#E9EEFF"/>
</linearGradient>
<linearGradient id="paint1_linear_28_18820" x1="205.427" y1="308.383" x2="362.528" y2="308.383" gradientUnits="userSpaceOnUse">
<stop offset="0.2" stop-color="#E0E6FD"/>
<stop offset="0.52" stop-color="white"/>
<stop offset="0.73" stop-color="#FCFDFF"/>
<stop offset="0.85" stop-color="#F4F6FE"/>
<stop offset="0.95" stop-color="#E6EBFE"/>
<stop offset="1" stop-color="#DBE2FD"/>
</linearGradient>
</defs>
</svg>
