<svg width="482" height="440" viewBox="0 0 482 440" fill="none" xmlns="http://www.w3.org/2000/svg">
<path d="M0 25.6C0 16.6392 0 12.1587 1.7439 8.73615C3.27787 5.72556 5.72556 3.27787 8.73615 1.7439C12.1587 0 16.6392 0 25.6 0H456.4C465.361 0 469.841 0 473.264 1.7439C476.274 3.27787 478.722 5.72556 480.256 8.73615C482 12.1587 482 16.6392 482 25.6V414.4C482 423.361 482 427.841 480.256 431.264C478.722 434.274 476.274 436.722 473.264 438.256C469.841 440 465.361 440 456.4 440H25.6C16.6392 440 12.1587 440 8.73615 438.256C5.72556 436.722 3.27787 434.274 1.7439 431.264C0 427.841 0 423.361 0 414.4V25.6Z" fill="#E5F1FF"/>
<path fill-rule="evenodd" clip-rule="evenodd" d="M243.033 392.256C246.256 394.114 250.553 395.135 255.131 395.135C259.702 395.135 263.999 394.114 267.196 392.256L434.789 294.997C438.159 293.044 440 290.407 440 287.54C440 284.674 438.12 282.012 434.712 280.045L266.013 182.787C262.79 180.929 258.513 179.907 253.928 179.907C249.344 179.907 245.06 180.929 241.857 182.793L74.2507 280.052C70.8812 282.005 69.027 284.636 69.0334 287.502C69.0398 290.369 70.9195 293.031 74.3274 294.997L243.033 392.256ZM242.714 184.255C245.706 182.518 249.689 181.567 253.922 181.567C257.838 181.486 261.708 182.411 265.162 184.255L433.836 281.533C436.733 283.18 438.312 285.344 438.312 287.566C438.312 289.788 436.765 291.914 433.945 293.548L266.332 390.787C263.359 392.505 259.344 393.475 255.13 393.475C250.917 393.475 246.895 392.524 243.884 390.781L75.2097 293.522C72.3134 291.875 70.7341 289.717 70.7341 287.496C70.7341 285.274 72.2814 283.154 75.101 281.52L242.714 184.255Z" fill="#B3C9FC"/>
<path fill-rule="evenodd" clip-rule="evenodd" d="M140.599 393.705C142.64 394.803 144.93 395.36 147.248 395.321C149.57 395.366 151.863 394.809 153.904 393.705L243.628 341.648C245.559 340.511 246.614 339.005 246.614 337.319C246.614 335.634 245.54 334.089 243.583 332.965L153.284 280.907C149.104 278.754 144.139 278.754 139.959 280.907L50.2356 332.965C48.3111 334.102 47.2498 335.608 47.2498 337.294C47.2498 338.979 48.3303 340.524 50.2804 341.648L140.599 393.705ZM146.606 281.003C144.588 280.955 142.591 281.428 140.81 282.376L51.0861 334.408C49.7242 335.2 48.9441 336.24 48.9441 337.268C48.9441 338.296 49.7434 339.381 51.1308 340.154L141.43 392.237C145.086 394.067 149.392 394.067 153.048 392.237L242.765 340.154C244.127 339.362 244.907 338.322 244.9 337.294C244.894 336.266 244.108 335.206 242.727 334.408L152.427 282.376C150.636 281.429 148.632 280.956 146.606 281.003Z" fill="#B3C9FC"/>
<path fill-rule="evenodd" clip-rule="evenodd" d="M124.02 274.523C125.616 275.388 127.408 275.828 129.224 275.8C131.034 275.834 132.823 275.401 134.416 274.542L203.059 234.71C204.575 233.829 205.444 232.565 205.444 231.224C205.444 229.884 204.562 228.6 203.028 227.719L133.93 187.888C130.668 186.211 126.796 186.211 123.534 187.888L54.9222 227.719C53.3749 228.6 52.499 229.865 52.5054 231.205C52.5118 232.546 53.3877 233.823 54.9222 234.71L124.02 274.523ZM124.391 189.362C125.725 188.653 127.22 188.299 128.732 188.335V188.328C130.247 188.295 131.746 188.649 133.086 189.356L202.177 229.188C203.187 229.769 203.744 230.484 203.744 231.224C203.744 231.965 203.2 232.667 202.209 233.242L133.559 273.074C132.227 273.783 130.734 274.137 129.224 274.101C127.709 274.137 126.209 273.783 124.87 273.074L55.7726 233.242C54.7624 232.661 54.2061 231.946 54.2061 231.205C54.2061 230.465 54.7496 229.762 55.747 229.188L124.391 189.362Z" fill="#B3C9FC"/>
<path fill-rule="evenodd" clip-rule="evenodd" d="M284.862 381.281C287.182 382.615 287.195 384.792 284.862 386.133C282.226 387.474 279.108 387.474 276.473 386.133C274.152 384.792 274.139 382.622 276.473 381.281C279.108 379.94 282.226 379.94 284.862 381.281Z" fill="#3D6BF5"/>
<path fill-rule="evenodd" clip-rule="evenodd" d="M86.5906 209.448C88.9115 210.789 88.9243 212.959 86.5906 214.3C83.9555 215.641 80.837 215.641 78.202 214.3C75.881 212.959 75.8682 210.789 78.202 209.448C80.837 208.107 83.9555 208.107 86.5906 209.448Z" fill="#3D6BF5"/>
<path fill-rule="evenodd" clip-rule="evenodd" d="M218.462 196.245C220.789 197.585 220.796 199.756 218.462 201.097C215.827 202.437 212.709 202.437 210.074 201.097C207.753 199.756 207.74 197.585 210.074 196.245C212.709 194.904 215.827 194.904 218.462 196.245Z" fill="#3D6BF5"/>
<path fill-rule="evenodd" clip-rule="evenodd" d="M85.753 356.166C88.0803 357.506 88.0931 359.677 85.753 361.018C83.118 362.358 79.9994 362.358 77.3644 361.018C75.0434 359.677 75.0307 357.506 77.3644 356.166C79.9994 354.825 83.118 354.825 85.753 356.166Z" fill="#3D6BF5"/>
<g opacity="0.1">
<path fill-rule="evenodd" clip-rule="evenodd" d="M359.929 284.686C364.556 287.364 364.574 291.69 359.929 294.358L293.446 333.018C288.893 335.696 281.379 335.696 276.753 333.018L209.787 294.358C205.17 291.69 205.142 287.364 209.787 284.695L276.27 246.026C280.824 243.357 288.337 243.357 292.964 246.026L359.929 284.686Z" fill="#0246AF"/>
</g>
<path fill-rule="evenodd" clip-rule="evenodd" d="M360.057 253.32C364.692 255.998 364.701 260.333 360.102 263.011L293.455 301.735C288.847 304.412 281.361 304.421 276.725 301.735L209.632 263.011C205.006 260.333 204.978 255.998 209.632 253.32L276.234 214.587C280.842 211.91 288.337 211.91 292.964 214.587L360.057 253.32Z" fill="url(#paint0_linear)"/>
<path fill-rule="evenodd" clip-rule="evenodd" d="M363.545 258.166C363.545 259.914 362.406 261.672 360.102 263.011L293.455 301.735C288.847 304.412 281.361 304.421 276.725 301.735L209.632 263.011C207.319 261.672 206.153 259.914 206.144 258.166V262.719C206.144 264.477 207.319 266.226 209.632 267.564L276.753 306.279C281.388 308.957 288.874 308.957 293.483 306.279L360.13 267.546C362.434 266.207 363.581 264.459 363.572 262.701V258.147L363.545 258.166Z" fill="url(#paint1_linear)"/>
<path fill-rule="evenodd" clip-rule="evenodd" d="M285.104 291.872C284.267 291.905 283.433 291.762 282.654 291.453L224.96 258.139L282.217 224.879C282.987 224.586 283.807 224.449 284.63 224.478C285.47 224.445 286.308 224.588 287.089 224.897L344.757 258.23L287.517 291.471C286.748 291.767 285.927 291.903 285.104 291.872Z" fill="#2564F4"/>
<path fill-rule="evenodd" clip-rule="evenodd" d="M224.941 155.317V258.138L282.636 291.453C284.214 291.999 285.93 291.999 287.508 291.453L344.747 258.229V155.317H224.941Z" fill="url(#paint2_linear)"/>
<path fill-rule="evenodd" clip-rule="evenodd" d="M276.461 278.629C279.12 280.042 282.094 280.754 285.104 280.697C288.115 280.757 291.092 280.042 293.747 278.62L360.294 239.96C362.698 238.557 364.018 236.672 364.018 234.623C364.018 232.574 362.68 230.671 360.239 229.268L293.273 190.608C288.474 187.876 280.723 187.876 275.969 190.608L209.441 229.268C207.037 230.671 205.716 232.556 205.716 234.605C205.716 236.654 207.064 238.557 209.486 239.96L276.461 278.629ZM276.561 191.628C279.036 190.306 281.808 189.641 284.612 189.697C287.416 189.645 290.187 190.309 292.663 191.628L359.638 230.288C361.687 231.472 362.825 233.057 362.825 234.632C362.825 236.208 361.705 237.765 359.683 238.94L293.155 277.6C288.729 280.169 281.498 280.178 277.053 277.6L210.078 238.94C208.029 237.756 206.909 236.19 206.9 234.605C206.891 233.02 208.011 231.472 210.033 230.288L276.561 191.628Z" fill="white"/>
<path fill-rule="evenodd" clip-rule="evenodd" d="M276.461 255.07C279.12 256.482 282.094 257.194 285.104 257.137C288.115 257.198 291.092 256.483 293.747 255.061L360.294 216.4C362.698 215.007 364.018 213.131 364.018 211.073C364.018 209.014 362.68 207.12 360.239 205.708L293.273 167.048C288.474 164.316 280.723 164.316 275.969 167.048L209.441 205.708C207.037 207.111 205.716 208.996 205.716 211.045C205.716 213.094 207.064 214.998 209.486 216.4L276.461 255.07ZM276.561 168.068C279.036 166.746 281.808 166.082 284.612 166.138C287.416 166.085 290.187 166.75 292.663 168.068L359.638 206.774C361.687 207.967 362.825 209.543 362.825 211.118C362.825 212.694 361.705 214.251 359.683 215.426L293.155 254.095C288.729 256.664 281.507 256.664 277.053 254.095L210.078 215.426C208.029 214.197 206.909 212.621 206.9 211.045C206.891 209.47 208.011 207.913 210.033 206.738L276.561 168.068Z" fill="white"/>
<path fill-rule="evenodd" clip-rule="evenodd" d="M305.313 137.385C305.832 137.294 306.351 137.185 306.852 137.076L307.18 137.003L308.637 136.666H308.792L310.085 136.329H310.24H310.349L311.46 136.019L311.652 135.965L312.562 135.701L312.836 135.619L313.664 135.354H313.756L314.566 135.09L314.766 135.017L315.295 134.835L315.44 134.781L315.959 134.599H316.06L316.369 134.48H316.442L316.633 134.407L312.18 131.639L311.98 131.712H311.916L311.606 131.821L311.506 131.866L310.987 132.048L310.841 132.103L310.304 132.285L310.113 132.349L309.302 132.622H309.211L308.382 132.886L308.1 132.968L307.189 133.232L306.998 133.287L305.896 133.651L305.641 133.724L304.339 134.061H304.193L302.736 134.398L302.408 134.471L300.86 134.781H300.677L299.193 135.036H298.911C298.228 135.136 297.526 135.227 296.825 135.3H296.597C295.887 135.373 295.186 135.427 294.475 135.455H294.22C293.729 135.455 293.228 135.455 292.736 135.455H292.417L291.197 135.409H290.796L290.058 135.336H289.594C289.321 135.336 289.057 135.263 288.783 135.227L288.465 135.282C287.857 135.172 287.25 135.036 286.643 134.872L286.416 134.808C285.947 134.686 285.485 134.54 285.031 134.371L284.722 134.243C284.375 134.089 284.039 133.934 283.72 133.752L283.392 133.588L287.809 136.156L287.964 136.238C288.02 136.269 288.077 136.296 288.137 136.32C288.465 136.502 288.802 136.666 289.139 136.812C289.198 136.843 289.258 136.87 289.321 136.894H289.448C289.905 137.086 290.374 137.25 290.851 137.385H290.933H291.078C291.67 137.549 292.262 137.686 292.9 137.795L293.228 137.841C293.492 137.841 293.756 137.923 294.02 137.95L294.485 137.996L295.222 138.068H295.623C296.033 138.068 296.443 138.068 296.852 138.068H297.162C297.663 138.068 298.155 138.068 298.656 138.068H298.756H298.911C299.612 138.068 300.322 137.986 301.024 137.914H301.26C301.962 137.841 302.654 137.75 303.346 137.649H303.428H303.628L305.104 137.394L305.313 137.385Z" fill="#0246AF"/>
<path fill-rule="evenodd" clip-rule="evenodd" d="M257.436 179.37C257.272 177.402 257.218 175.599 257.218 174.042C257.218 172.867 257.218 171.838 257.29 170.982C257.29 170.699 257.29 170.435 257.29 170.189C257.345 169.206 257.409 168.568 257.436 168.368L253.074 165.772C252.892 167.594 250.014 196.309 269.021 207.356L273.419 209.961C261.544 203.021 258.21 189.205 257.436 179.37Z" fill="#0246AF"/>
<path fill-rule="evenodd" clip-rule="evenodd" d="M316.597 134.207C316.825 136.092 321.151 171.893 287.217 214.032C253.183 211.118 257.263 170.481 257.482 168.341C258.502 167.558 277.864 152.649 286.989 135.555C296.206 142.057 315.577 134.599 316.597 134.207Z" fill="#2564F4"/>
<path fill-rule="evenodd" clip-rule="evenodd" d="M285.915 137.504L285.997 137.368C286.343 136.776 286.67 136.184 286.989 135.592L282.572 133.023C282.253 133.615 281.916 134.207 281.58 134.845C281.488 134.991 281.397 135.136 281.315 135.282C280.978 135.856 280.632 136.42 280.277 136.985L279.977 137.45C279.485 138.187 278.948 138.925 278.41 139.735L278.146 140.1C277.445 141.102 276.716 142.094 275.969 143.06C275.869 143.178 275.778 143.306 275.687 143.424C275.159 144.098 274.631 144.754 274.093 145.409L273.811 145.755C273.328 146.338 272.837 146.921 272.336 147.486L272.035 147.841C271.543 148.406 271.042 148.961 270.551 149.517L270.214 149.881C269.813 150.327 269.403 150.792 269.002 151.192L268.556 151.675C268.055 152.203 267.563 152.722 267.072 153.223L265.614 154.69L265.114 155.181L264.494 155.782L263.948 156.311L263.347 156.884L262.819 157.385L262.236 157.932L261.717 158.414L261.152 158.934L260.66 159.371L260.114 159.872L259.64 160.291L259.13 160.737L258.675 161.138L258.192 161.566L257.773 161.921L257.309 162.321L256.926 162.64L256.498 163.005L256.152 163.296L255.77 163.615L255.442 163.888L255.086 164.17L254.822 164.389L254.467 164.671L254.285 164.826L253.975 165.072L253.83 165.19L253.584 165.382L253.465 165.473L253.283 165.618L253.21 165.673L253.056 165.791L257.482 168.36L257.892 168.032H257.964L258.238 167.813C258.301 167.759 258.383 167.704 258.447 167.64L258.702 167.449L258.921 167.267L259.249 167.003L259.494 166.802L259.868 166.493L260.187 166.238L260.569 165.919L260.933 165.609L261.352 165.254L261.735 164.926L262.19 164.544L262.618 164.179L263.101 163.751L263.547 163.36L264.066 162.904L264.54 162.476L265.077 161.994L265.578 161.538L266.134 161.028L266.662 160.546L267.236 160.008L267.773 159.498L268.365 158.934L268.92 158.396L269.531 157.795L269.858 157.476L270.041 157.303C270.514 156.83 270.997 156.347 271.48 155.846C271.971 155.345 272.472 154.826 272.964 154.307L273.383 153.861C273.793 153.433 274.194 152.996 274.594 152.549C274.713 152.431 274.822 152.304 274.931 152.185C275.432 151.639 275.933 151.074 276.425 150.509L276.534 150.382L276.725 150.163C277.217 149.593 277.709 149.01 278.201 148.415L278.483 148.078C279.02 147.422 279.549 146.766 280.068 146.092L280.223 145.901L280.35 145.728C281.097 144.763 281.825 143.77 282.536 142.768L282.672 142.586C282.672 142.522 282.754 142.459 282.8 142.404C283.337 141.63 283.856 140.856 284.357 140.072L284.512 139.836L284.694 139.535C285.049 138.97 285.395 138.406 285.732 137.832C285.796 137.705 285.86 137.604 285.915 137.504Z" fill="#0246AF"/>
<path fill-rule="evenodd" clip-rule="evenodd" d="M287.044 152.822C296.67 147.266 304.503 151.729 304.53 162.785C304.557 173.841 296.789 187.32 287.162 192.839C277.536 198.358 269.704 193.932 269.676 182.876C269.649 171.82 277.418 158.377 287.044 152.822Z" fill="white"/>
<path fill-rule="evenodd" clip-rule="evenodd" d="M298.182 157.668C298.629 157.278 299.273 157.211 299.79 157.502C300.307 157.792 300.586 158.376 300.486 158.961C300.459 159.759 300.227 160.537 299.812 161.219L285.787 185.545C285.404 186.247 284.846 186.837 284.166 187.257C283.689 187.602 283.065 187.668 282.527 187.43L274.385 182.785C273.906 182.45 273.645 181.883 273.702 181.301C273.727 180.504 273.956 179.726 274.367 179.042C274.755 178.34 275.316 177.747 275.997 177.321C276.483 176.969 277.123 176.913 277.663 177.175L284.184 180.891L296.588 159.398C296.962 158.693 297.511 158.097 298.182 157.668Z" fill="#2564F4"/>
<path opacity="0.4" fill-rule="evenodd" clip-rule="evenodd" d="M155.716 48.4624C157.603 47.386 159.141 48.252 159.141 50.4049L159.572 199.763C159.443 202.146 158.176 204.324 156.164 205.622L75.8471 251.756C73.9683 252.84 72.4311 251.982 72.4229 249.821L72 100.471C72.1258 98.0894 73.3896 95.9111 75.3997 94.6117L155.716 48.4624Z" fill="#2564F4"/>
<path opacity="0.6" fill-rule="evenodd" clip-rule="evenodd" d="M172.935 58.417C174.813 57.3406 176.351 58.2147 176.359 60.3595L176.782 209.717C176.657 212.1 175.393 214.279 173.382 215.577L93.0653 261.71C91.1865 262.787 89.6493 261.929 89.6412 259.768L89.2183 110.426C89.3467 108.045 90.6098 105.868 92.618 104.566L172.935 58.417Z" fill="#2564F4"/>
<path opacity="0.8" fill-rule="evenodd" clip-rule="evenodd" d="M190.153 68.3802C192.032 67.2957 193.569 68.1698 193.577 70.3146L194 219.673C193.876 222.055 192.611 224.234 190.6 225.532L110.284 271.665C108.397 272.742 106.859 271.884 106.859 269.723L106.428 120.381C106.561 117.999 107.827 115.823 109.836 114.521L190.153 68.3802Z" fill="#2564F4"/>
<path fill-rule="evenodd" clip-rule="evenodd" d="M190.161 68.3802C192.04 67.2957 193.577 68.1698 193.577 70.3146L193.626 86.9549L106.485 137.03L106.437 120.389C106.566 118.008 107.829 115.832 109.836 114.53L190.161 68.3802Z" fill="#97B2F8"/>
<path fill-rule="evenodd" clip-rule="evenodd" d="M189.047 209.192C189.803 208.763 190.413 209.111 190.421 210.001V219.713C190.367 220.638 189.887 221.486 189.12 222.012L111.78 266.453C111.024 266.89 110.414 266.542 110.414 265.644V255.932C110.459 254.981 110.954 254.108 111.748 253.577L189.047 209.192Z" fill="white"/>
<ellipse cx="115.547" cy="122.238" rx="7.64978" ry="4.44347" transform="rotate(-59.84 115.547 122.238)" fill="white"/>
<path fill-rule="evenodd" clip-rule="evenodd" d="M151.52 99.7426C152.65 99.0951 153.569 99.6131 153.577 100.908C153.501 102.337 152.742 103.643 151.536 104.421L126.941 118.552C125.81 119.199 124.883 118.69 124.883 117.395C124.956 115.963 125.716 114.654 126.924 113.874L151.52 99.7426Z" fill="white"/>
<path fill-rule="evenodd" clip-rule="evenodd" d="M137.067 142.339C137.88 141.854 138.588 142.242 138.588 143.205C138.53 144.264 137.968 145.232 137.075 145.811C136.261 146.297 135.554 145.908 135.546 144.945C135.603 143.884 136.169 142.915 137.067 142.339Z" fill="#2564F4"/>
<path fill-rule="evenodd" clip-rule="evenodd" d="M158.343 164.548C159.157 164.063 159.864 164.451 159.873 165.414C159.81 166.476 159.246 167.446 158.352 168.028C157.538 168.506 156.831 168.117 156.831 167.162C156.885 166.1 157.447 165.128 158.343 164.548Z" fill="#2564F4"/>
<path fill-rule="evenodd" clip-rule="evenodd" d="M163.728 161.424C164.541 160.938 165.249 161.327 165.249 162.29C165.189 163.351 164.628 164.321 163.736 164.904C162.923 165.382 162.215 164.993 162.207 164.038C162.264 162.975 162.829 162.003 163.728 161.424Z" fill="#2564F4"/>
<path fill-rule="evenodd" clip-rule="evenodd" d="M169.104 158.332C169.917 157.847 170.625 158.235 170.633 159.198C170.576 160.262 170.01 161.234 169.112 161.813C168.299 162.29 167.591 161.902 167.591 160.947C167.648 159.885 168.21 158.914 169.104 158.332Z" fill="#2564F4"/>
<path fill-rule="evenodd" clip-rule="evenodd" d="M184.858 144.314C184.858 142.525 183.597 141.813 182.06 142.695L145.387 163.747C143.739 164.814 142.702 166.6 142.597 168.554V181.933C142.605 183.729 143.858 184.442 145.403 183.551L182.109 162.492C183.759 161.43 184.796 159.645 184.899 157.693L184.858 144.314ZM159.84 165.357C159.795 166.425 159.243 167.407 158.352 168.004L158.319 167.971C157.481 168.449 156.798 168.06 156.798 167.105C156.852 166.043 157.415 165.071 158.311 164.491C159.149 164.006 159.84 164.394 159.84 165.357ZM163.703 164.88C164.596 164.296 165.157 163.326 165.216 162.265C165.216 161.302 164.533 160.922 163.695 161.399C162.797 161.978 162.231 162.95 162.174 164.014C162.174 164.969 162.866 165.357 163.703 164.88ZM170.6 159.174C170.543 160.237 169.978 161.209 169.079 161.788C168.242 162.265 167.559 161.877 167.559 160.922C167.615 159.86 168.177 158.889 169.071 158.308C169.917 157.822 170.6 158.211 170.6 159.174Z" fill="white"/>
<path fill-rule="evenodd" clip-rule="evenodd" d="M142.475 139.247C143.289 138.762 143.996 139.15 144.004 140.113C143.94 141.166 143.375 142.125 142.483 142.695C141.67 143.181 140.963 142.792 140.963 141.837C141.026 140.784 141.587 139.823 142.475 139.247Z" fill="#2564F4"/>
<path fill-rule="evenodd" clip-rule="evenodd" d="M158.23 125.262C158.221 123.474 156.969 122.761 155.424 123.643L118.71 144.735C117.064 145.801 116.028 147.584 115.92 149.535L115.969 162.929C115.977 164.726 117.229 165.438 118.775 164.548L155.44 143.44C157.086 142.375 158.122 140.592 158.23 138.641V125.262ZM133.236 146.297C133.182 147.357 132.619 148.327 131.723 148.903C130.885 149.389 130.194 149.001 130.194 148.045C130.253 146.982 130.818 146.011 131.715 145.431C132.553 144.946 133.236 145.334 133.236 146.297ZM142.483 142.696C143.381 142.12 143.947 141.151 144.004 140.09C144.004 139.126 143.313 138.738 142.475 139.224C141.567 139.814 141.002 140.807 140.963 141.886C140.963 142.841 141.646 143.23 142.483 142.744V142.696ZM138.62 143.23C138.562 144.289 138 145.257 137.107 145.836C136.261 146.322 135.578 145.933 135.578 144.97C135.635 143.909 136.201 142.939 137.099 142.364C137.937 141.878 138.62 142.267 138.62 143.23Z" fill="white"/>
<path fill-rule="evenodd" clip-rule="evenodd" d="M131.715 145.431C132.528 144.945 133.236 145.334 133.236 146.297C133.182 147.357 132.619 148.327 131.723 148.903C130.91 149.389 130.202 149 130.194 148.045C130.253 146.982 130.818 146.011 131.715 145.431Z" fill="#2564F4"/>
<path fill-rule="evenodd" clip-rule="evenodd" d="M131.91 214.007C132.723 213.522 133.431 213.91 133.431 214.873C133.377 215.933 132.814 216.903 131.918 217.479C131.105 217.965 130.397 217.576 130.397 216.613C130.451 215.553 131.014 214.583 131.91 214.007Z" fill="#2564F4"/>
<path fill-rule="evenodd" clip-rule="evenodd" d="M137.294 210.915C138.108 210.43 138.815 210.818 138.815 211.781C138.757 212.84 138.195 213.808 137.303 214.387C136.489 214.873 135.782 214.485 135.773 213.521C135.831 212.46 136.396 211.491 137.294 210.915Z" fill="#2564F4"/>
<path fill-rule="evenodd" clip-rule="evenodd" d="M142.671 207.824C143.484 207.338 144.191 207.727 144.2 208.682C144.142 209.747 143.577 210.722 142.679 211.304C141.865 211.781 141.158 211.393 141.158 210.43C141.216 209.371 141.778 208.403 142.671 207.824Z" fill="#2564F4"/>
<path fill-rule="evenodd" clip-rule="evenodd" d="M158.425 193.838C158.425 192.049 157.164 191.329 155.619 192.219L118.954 213.287C117.308 214.352 116.272 216.135 116.164 218.086V231.465C116.172 233.262 117.425 233.966 118.97 233.084L155.635 212.016C157.281 210.95 158.317 209.168 158.425 207.217V193.838ZM133.431 214.873C133.377 215.933 132.814 216.903 131.918 217.479C131.081 217.965 130.397 217.576 130.397 216.613C130.451 215.553 131.014 214.583 131.91 214.007C132.748 213.521 133.431 213.91 133.431 214.873ZM142.679 211.304C143.577 210.721 144.142 209.747 144.2 208.682C144.2 207.727 143.508 207.338 142.671 207.824C141.768 208.397 141.197 209.366 141.133 210.43C141.133 211.393 141.817 211.781 142.654 211.304H142.679ZM138.791 211.781C138.733 212.84 138.171 213.808 137.278 214.387C136.432 214.873 135.749 214.485 135.749 213.521C135.806 212.46 136.372 211.491 137.27 210.915C138.108 210.43 138.791 210.818 138.791 211.781Z" fill="white"/>
<defs>
<linearGradient id="paint0_linear" x1="363.541" y1="303.747" x2="363.541" y2="212.584" gradientUnits="userSpaceOnUse">
<stop stop-color="white"/>
<stop offset="0.5" stop-color="#FCFDFF"/>
<stop offset="0.8" stop-color="#F4F7FF"/>
<stop offset="1" stop-color="#E9EEFF"/>
</linearGradient>
<linearGradient id="paint1_linear" x1="206.144" y1="308.294" x2="363.545" y2="308.294" gradientUnits="userSpaceOnUse">
<stop offset="0.2" stop-color="#E0E6FD"/>
<stop offset="0.52" stop-color="white"/>
<stop offset="0.73" stop-color="#FCFDFF"/>
<stop offset="0.85" stop-color="#F4F6FE"/>
<stop offset="0.95" stop-color="#E6EBFE"/>
<stop offset="1" stop-color="#DBE2FD"/>
</linearGradient>
<linearGradient id="paint2_linear" x1="344.756" y1="291.872" x2="344.756" y2="155.317" gradientUnits="userSpaceOnUse">
<stop stop-color="#DBE2FD"/>
<stop offset="0.11" stop-color="#B7C9FB" stop-opacity="0.8"/>
<stop offset="0.24" stop-color="#91AFF9" stop-opacity="0.59"/>
<stop offset="0.37" stop-color="#7098F8" stop-opacity="0.41"/>
<stop offset="0.5" stop-color="#5585F6" stop-opacity="0.26"/>
<stop offset="0.63" stop-color="#4077F5" stop-opacity="0.15"/>
<stop offset="0.75" stop-color="#316CF5" stop-opacity="0.07"/>
<stop offset="0.88" stop-color="#2866F4" stop-opacity="0.02"/>
<stop offset="1" stop-color="#2564F4" stop-opacity="0.01"/>
</linearGradient>
</defs>
</svg>
